<?xml version="1.0" encoding="UTF-8"?>
<svg width="223px" height="34px" viewBox="0 0 223 34" version="1.1" xmlns="http://www.w3.org/2000/svg" xmlns:xlink="http://www.w3.org/1999/xlink">
    <!-- Generator: Sketch 54.1 (76490) - https://sketchapp.com -->
    <title>Group Copy</title>
    <desc>Created with Sketch.</desc>
    <g id="Page-1" stroke="none" stroke-width="1" fill="none" fill-rule="evenodd">
        <g id="Artboard" transform="translate(-1899.000000, -401.000000)">
            <g id="Group-Copy" transform="translate(1899.000000, 401.000000)">
                <g id="vestedinterest" transform="translate(35.363983, 10.000000)" fill-rule="nonzero">
                    <path d="M6.29601657,20.97 L0.0860165653,7.95 C-0.123983435,7.53 0.0560165653,7.14 0.566016565,7.14 L3.41601657,7.14 C3.74601657,7.14 3.92601657,7.29 4.04601657,7.53 L6.92601657,14.37 L6.98601657,14.37 L10.0460166,7.53 C10.2260166,7.17 10.5260166,7.14 10.9160166,7.14 L13.4360166,7.14 C13.9460166,7.14 14.1560166,7.53 13.9160166,7.95 L7.67601657,20.97 C7.55601657,21.15 7.37601657,21.33 7.07601657,21.33 L6.89601657,21.33 C6.59601657,21.33 6.41601657,21.15 6.29601657,20.97 Z M15.0260166,14.07 C15.0260166,10.17 17.9060166,6.84 22.0160166,6.84 C25.6160166,6.84 28.3760166,9.51 28.3760166,13.26 C28.3760166,13.47 28.3460166,13.95 28.3160166,14.16 C28.2860166,14.52 27.9560166,14.79 27.6560166,14.79 L18.7760166,14.79 C18.8060166,16.5 20.2160166,18 22.2260166,18 C23.6060166,18 24.5660166,17.49 25.1960166,16.98 C25.5260166,16.71 25.8860166,16.68 26.0960166,16.98 L27.2660166,18.54 C27.5060166,18.81 27.5360166,19.14 27.2060166,19.44 C26.0060166,20.46 24.2960166,21.33 22.0460166,21.33 C17.9060166,21.33 15.0260166,18.03 15.0260166,14.07 Z M18.9860166,12.33 L24.5960166,12.33 C24.5360166,10.98 23.4560166,9.93 21.9260166,9.93 C20.2460166,9.93 19.1660166,10.95 18.9860166,12.33 Z M35.3060166,21.33 C32.9960166,21.33 31.5560166,20.61 30.7760166,20.07 C30.5960166,19.95 30.4460166,19.62 30.5960166,19.32 L31.4960166,17.52 C31.6460166,17.19 31.9760166,17.07 32.3060166,17.28 C32.9360166,17.67 33.9260166,18.18 35.3660166,18.18 C36.4160166,18.18 36.8960166,17.79 36.8960166,17.19 C36.8960166,16.56 36.1160166,15.99 34.2860166,15.27 C31.6160166,14.25 30.4160166,12.99 30.4160166,10.89 C30.4160166,8.79 32.0060166,6.84 35.3960166,6.84 C37.4360166,6.84 38.7560166,7.38 39.5060166,7.86 C39.8060166,8.1 39.9860166,8.46 39.8060166,8.82 L39.0260166,10.41 C38.8160166,10.74 38.4560166,10.8 38.1560166,10.68 C37.4960166,10.38 36.5360166,9.99 35.3960166,9.99 C34.4660166,9.99 34.0760166,10.44 34.0760166,10.89 C34.0760166,11.52 34.7660166,11.85 36.0560166,12.39 C38.7260166,13.47 40.6460166,14.43 40.6460166,17.19 C40.6460166,19.38 38.7860166,21.33 35.3060166,21.33 Z M44.5160166,16.86 L44.5160166,10.5 L43.1660166,10.5 C42.8060166,10.5 42.5360166,10.17 42.5360166,9.84 L42.5360166,7.8 C42.5360166,7.41 42.8060166,7.14 43.1660166,7.14 L44.5160166,7.14 L44.5160166,3.3 C44.5160166,2.94 44.8460166,2.64 45.1760166,2.64 L47.6360166,2.64 C47.9960166,2.64 48.2660166,2.94 48.2660166,3.3 L48.2660166,7.14 L51.5060166,7.14 C51.8660166,7.14 52.1660166,7.41 52.1660166,7.8 L52.1660166,9.84 C52.1660166,10.17 51.8660166,10.5 51.5060166,10.5 L48.2660166,10.5 L48.2660166,16.74 C48.2660166,17.67 48.7160166,17.88 49.4060166,17.88 C50.0060166,17.88 51.1460166,17.55 51.5060166,17.43 C51.8960166,17.28 52.2260166,17.46 52.2860166,17.79 L52.6760166,19.62 C52.7660166,19.98 52.6160166,20.25 52.2860166,20.43 C51.8060166,20.7 49.8260166,21.33 48.3860166,21.33 C45.2960166,21.33 44.5160166,19.26 44.5160166,16.86 Z M54.4460166,14.07 C54.4460166,10.17 57.3260166,6.84 61.4360166,6.84 C65.0360166,6.84 67.7960166,9.51 67.7960166,13.26 C67.7960166,13.47 67.7660166,13.95 67.7360166,14.16 C67.7060166,14.52 67.3760166,14.79 67.0760166,14.79 L58.1960166,14.79 C58.2260166,16.5 59.6360166,18 61.6460166,18 C63.0260166,18 63.9860166,17.49 64.6160166,16.98 C64.9460166,16.71 65.3060166,16.68 65.5160166,16.98 L66.6860166,18.54 C66.9260166,18.81 66.9560166,19.14 66.6260166,19.44 C65.4260166,20.46 63.7160166,21.33 61.4660166,21.33 C57.3260166,21.33 54.4460166,18.03 54.4460166,14.07 Z M58.4060166,12.33 L64.0160166,12.33 C63.9560166,10.98 62.8760166,9.93 61.3460166,9.93 C59.6660166,9.93 58.5860166,10.95 58.4060166,12.33 Z M69.7760166,14.07 C69.7760166,10.02 72.5060166,6.84 76.6460166,6.84 C78.0260166,6.84 79.3460166,7.17 79.9760166,7.41 L79.9760166,0.66 C79.9760166,0.33 80.3060166,-3.55271368e-14 80.6360166,-3.55271368e-14 L83.0660166,-3.55271368e-14 C83.4260166,-3.55271368e-14 83.7260166,0.33 83.7260166,0.66 L83.7260166,20.34 C83.7260166,20.7 83.4260166,21 83.0660166,21 L81.9560166,21 C81.6260166,21 81.4160166,20.73 81.2960166,20.34 L80.9360166,19.26 C80.9360166,19.26 79.3460166,21.33 76.4060166,21.33 C72.6260166,21.33 69.7760166,18.27 69.7760166,14.07 Z M79.9760166,15.99 L79.9760166,11.04 C79.9760166,11.04 78.8360166,10.26 77.0960166,10.26 C74.8160166,10.26 73.6460166,12.12 73.6460166,14.07 C73.6460166,16.02 74.7560166,17.91 76.9160166,17.91 C78.7160166,17.91 79.6760166,16.77 79.9760166,15.99 Z" id="vested" fill="#9DADC8"></path>
                    <path d="M87.5660166,20.34 L87.5660166,7.8 C87.5660166,7.41 87.8960166,7.14 88.2260166,7.14 L90.6560166,7.14 C90.9860166,7.14 91.3160166,7.41 91.3160166,7.8 L91.3160166,20.34 C91.3160166,20.7 90.9860166,21 90.6560166,21 L88.2260166,21 C87.8960166,21 87.5660166,20.7 87.5660166,20.34 Z M89.3960166,4.77 C88.0460166,4.77 87.0260166,3.69 87.0260166,2.37 C87.0260166,1.05 88.0460166,-3.55271368e-14 89.3960166,-3.55271368e-14 C90.7460166,-3.55271368e-14 91.7960166,1.05 91.7960166,2.37 C91.7960166,3.69 90.7460166,4.77 89.3960166,4.77 Z M95.1560166,20.34 L95.1560166,7.8 C95.1560166,7.41 95.4860166,7.14 95.8160166,7.14 L96.9560166,7.14 C97.2860166,7.14 97.4360166,7.29 97.5260166,7.56 L98.0360166,8.85 C98.5460166,8.28 99.8360166,6.84 102.506017,6.84 C106.916017,6.84 108.056017,9.81 108.056017,13.17 L108.056017,20.34 C108.056017,20.7 107.726017,21 107.396017,21 L104.966017,21 C104.606017,21 104.306017,20.7 104.306017,20.34 L104.306017,13.17 C104.306017,11.37 103.586017,10.26 101.906017,10.26 C100.106017,10.26 99.2360166,11.46 98.9060166,12.42 L98.9060166,20.34 C98.9060166,20.85 98.6960166,21 98.0360166,21 L95.8160166,21 C95.4860166,21 95.1560166,20.7 95.1560166,20.34 Z M112.556017,16.86 L112.556017,10.5 L111.206017,10.5 C110.846017,10.5 110.576017,10.17 110.576017,9.84 L110.576017,7.8 C110.576017,7.41 110.846017,7.14 111.206017,7.14 L112.556017,7.14 L112.556017,3.3 C112.556017,2.94 112.886017,2.64 113.216017,2.64 L115.676017,2.64 C116.036017,2.64 116.306017,2.94 116.306017,3.3 L116.306017,7.14 L119.546017,7.14 C119.906017,7.14 120.206017,7.41 120.206017,7.8 L120.206017,9.84 C120.206017,10.17 119.906017,10.5 119.546017,10.5 L116.306017,10.5 L116.306017,16.74 C116.306017,17.67 116.756017,17.88 117.446017,17.88 C118.046017,17.88 119.186017,17.55 119.546017,17.43 C119.936017,17.28 120.266017,17.46 120.326017,17.79 L120.716017,19.62 C120.806017,19.98 120.656017,20.25 120.326017,20.43 C119.846017,20.7 117.866017,21.33 116.426017,21.33 C113.336017,21.33 112.556017,19.26 112.556017,16.86 Z M122.486017,14.07 C122.486017,10.17 125.366017,6.84 129.476017,6.84 C133.076017,6.84 135.836017,9.51 135.836017,13.26 C135.836017,13.47 135.806017,13.95 135.776017,14.16 C135.746017,14.52 135.416017,14.79 135.116017,14.79 L126.236017,14.79 C126.266017,16.5 127.676017,18 129.686017,18 C131.066017,18 132.026017,17.49 132.656017,16.98 C132.986017,16.71 133.346017,16.68 133.556017,16.98 L134.726017,18.54 C134.966017,18.81 134.996017,19.14 134.666017,19.44 C133.466017,20.46 131.756017,21.33 129.506017,21.33 C125.366017,21.33 122.486017,18.03 122.486017,14.07 Z M126.446017,12.33 L132.056017,12.33 C131.996017,10.98 130.916017,9.93 129.386017,9.93 C127.706017,9.93 126.626017,10.95 126.446017,12.33 Z M138.656017,20.34 L138.656017,7.8 C138.656017,7.41 138.986017,7.14 139.316017,7.14 L140.426017,7.14 C140.756017,7.14 140.906017,7.29 141.026017,7.59 L141.536017,8.94 C142.016017,8.25 143.306017,6.84 145.436017,6.84 C147.086017,6.84 148.436017,7.29 148.046017,8.19 L147.146017,10.23 C146.996017,10.56 146.666017,10.68 146.336017,10.53 C146.006017,10.38 145.676017,10.26 145.046017,10.26 C143.546017,10.26 142.646017,11.22 142.406017,11.7 L142.406017,20.34 C142.406017,20.85 142.076017,21 141.626017,21 L139.316017,21 C138.986017,21 138.656017,20.7 138.656017,20.34 Z M149.066017,14.07 C149.066017,10.17 151.946017,6.84 156.056017,6.84 C159.656017,6.84 162.416017,9.51 162.416017,13.26 C162.416017,13.47 162.386017,13.95 162.356017,14.16 C162.326017,14.52 161.996017,14.79 161.696017,14.79 L152.816017,14.79 C152.846017,16.5 154.256017,18 156.266017,18 C157.646017,18 158.606017,17.49 159.236017,16.98 C159.566017,16.71 159.926017,16.68 160.136017,16.98 L161.306017,18.54 C161.546017,18.81 161.576017,19.14 161.246017,19.44 C160.046017,20.46 158.336017,21.33 156.086017,21.33 C151.946017,21.33 149.066017,18.03 149.066017,14.07 Z M153.026017,12.33 L158.636017,12.33 C158.576017,10.98 157.496017,9.93 155.966017,9.93 C154.286017,9.93 153.206017,10.95 153.026017,12.33 Z M169.346017,21.33 C167.036017,21.33 165.596017,20.61 164.816017,20.07 C164.636017,19.95 164.486017,19.62 164.636017,19.32 L165.536017,17.52 C165.686017,17.19 166.016017,17.07 166.346017,17.28 C166.976017,17.67 167.966017,18.18 169.406017,18.18 C170.456017,18.18 170.936017,17.79 170.936017,17.19 C170.936017,16.56 170.156017,15.99 168.326017,15.27 C165.656017,14.25 164.456017,12.99 164.456017,10.89 C164.456017,8.79 166.046017,6.84 169.436017,6.84 C171.476017,6.84 172.796017,7.38 173.546017,7.86 C173.846017,8.1 174.026017,8.46 173.846017,8.82 L173.066017,10.41 C172.856017,10.74 172.496017,10.8 172.196017,10.68 C171.536017,10.38 170.576017,9.99 169.436017,9.99 C168.506017,9.99 168.116017,10.44 168.116017,10.89 C168.116017,11.52 168.806017,11.85 170.096017,12.39 C172.766017,13.47 174.686017,14.43 174.686017,17.19 C174.686017,19.38 172.826017,21.33 169.346017,21.33 Z M178.556017,16.86 L178.556017,10.5 L177.206017,10.5 C176.846017,10.5 176.576017,10.17 176.576017,9.84 L176.576017,7.8 C176.576017,7.41 176.846017,7.14 177.206017,7.14 L178.556017,7.14 L178.556017,3.3 C178.556017,2.94 178.886017,2.64 179.216017,2.64 L181.676017,2.64 C182.036017,2.64 182.306017,2.94 182.306017,3.3 L182.306017,7.14 L185.546017,7.14 C185.906017,7.14 186.206017,7.41 186.206017,7.8 L186.206017,9.84 C186.206017,10.17 185.906017,10.5 185.546017,10.5 L182.306017,10.5 L182.306017,16.74 C182.306017,17.67 182.756017,17.88 183.446017,17.88 C184.046017,17.88 185.186017,17.55 185.546017,17.43 C185.936017,17.28 186.266017,17.46 186.326017,17.79 L186.716017,19.62 C186.806017,19.98 186.656017,20.25 186.326017,20.43 C185.846017,20.7 183.866017,21.33 182.426017,21.33 C179.336017,21.33 178.556017,19.26 178.556017,16.86 Z" id="interest" fill="#000000"></path>
                </g>
                <path d="M4,0 L26,0 L26,26 L12,26 C7.581722,26 4,22.418278 4,18 L4,0 Z" id="Rectangle" fill="#000000"></path>
                <path d="M0,26 L-1.28587914e-15,26 C3.86599325,26 7,29.1340068 7,33 L7,34 L0,34 L0,26 Z" id="Rectangle-Copy" fill="#9EADC8"></path>
            </g>
        </g>
    </g>
</svg>