<?xml version="1.0" encoding="UTF-8"?>
<svg width="1448px" height="1138px" viewBox="0 0 1448 1138" version="1.1" xmlns="http://www.w3.org/2000/svg" xmlns:xlink="http://www.w3.org/1999/xlink">
    <!-- Generator: Sketch 54.1 (76490) - https://sketchapp.com -->
    <title>undraw_preferences_uuo2</title>
    <desc>Created with Sketch.</desc>
    <defs>
        <linearGradient x1="49.9704824%" y1="100.003133%" x2="49.9704824%" y2="-0.0043332453%" id="linearGradient-1">
            <stop stop-color="#808080" stop-opacity="0.25" offset="0%"></stop>
            <stop stop-color="#808080" stop-opacity="0.12" offset="54%"></stop>
            <stop stop-color="#808080" stop-opacity="0.1" offset="100%"></stop>
        </linearGradient>
    </defs>
    <g id="Page-1" stroke="none" stroke-width="1" fill="none" fill-rule="evenodd">
        <g id="undraw_preferences_uuo2" fill-rule="nonzero">
            <path d="M1342.78067,894.424561 C1338.27272,898.962849 1333.6532,903.378481 1328.92209,907.671457 C1328.13208,908.407396 1327.3153,909.204663 1326.5119,909.863941 C1309.67444,924.821001 1291.99741,938.495948 1273.59491,950.80053 C1252.47899,965.090006 1230.43917,978.091589 1208.10477,990.357234 C1174.53315,1008.95653 1140.14685,1025.56272 1105.08265,1040.10975 L1103.50264,1040.76903 C1088.07745,1047.0654 1072.47818,1052.87625 1056.70484,1058.20158 L1056.42365,1058.29357 C1045.41713,1061.97327 1034.33474,1065.37187 1023.17646,1068.48939 L1021.65001,1068.91869 C1005.22503,1073.45698 988.634909,1077.31554 971.879645,1080.49439 L968.023346,1081.19966 C955.776024,1083.40748 943.4439,1085.20644 931.026973,1086.59655 C861.238665,1094.26258 790.606792,1088.03776 721.246962,1077.27466 C581.174919,1055.51847 442.964076,1014.7352 316.871119,950.80053 C268.826218,926.556455 222.328932,898.475595 177.722981,866.765532 C171.402935,862.257908 165.123058,857.658291 158.883351,852.966682 C157.905887,852.215411 156.915032,851.433476 155.937567,850.71287 C94.4242352,803.628126 38.8694215,746.286238 13.0268593,673.918934 C-15.8016569,593.134332 2.64966466,490.746864 74.0581538,442.926182 C98.7224022,426.520882 127.176,417.582294 155.964347,410.207575 L158.910131,409.456304 C163.784065,408.229739 168.657999,407.049171 173.518543,405.868603 C190.510363,401.74428 207.595912,397.650621 224.520781,393.066336 C255.973724,384.587709 286.877679,374.468553 315.679415,359.611791 C317.80395,358.528325 319.919559,357.409085 322.026241,356.25407 C344.561491,343.988426 369.07845,326.141913 387.636891,304.707699 C403.624466,286.201907 415.126415,264.982342 417.027784,242.214239 C417.576156,235.746135 417.323716,229.221755 416.277948,222.834521 C414.296239,210.722197 412.381479,198.88585 410.921977,187.32548 C408.243991,165.615289 407.387036,144.855685 411.042486,124.83202 C414.764887,104.425054 423.187152,84.7846905 439.281846,65.7422772 C441.718813,62.8598507 444.334312,59.9927563 447.128344,57.1409939 C460.124674,44.0837257 474.826322,33.4370022 490.699172,25.5876231 C492.671954,24.565486 494.653664,23.6097879 496.6443,22.7205286 C540.831064,2.23690209 593.948911,-2.04074148 643.571986,0.780356785 C689.935543,3.50602082 736.004812,10.8367276 781.260622,22.6898645 C784.849123,23.6097879 788.437624,24.5757074 791.972565,25.5569589 C830.485499,36.2336877 868.380826,49.6444921 905.438819,65.7116131 C1014.39267,112.627704 1116.35697,180.226738 1210.64885,253.605957 L1215.14787,257.116998 C1217.35274,258.844409 1219.55762,260.582042 1221.76249,262.329897 C1226.27936,265.886934 1230.76945,269.464413 1235.23276,273.062336 C1238.55346,275.709671 1241.86524,278.377448 1245.16809,281.065669 L1252.27814,286.845854 L1256.71021,290.494883 C1280.81208,310.426556 1304.52564,331.078835 1326.49851,353.233655 L1328.9087,355.686784 C1355.68856,382.977844 1379.93772,412.507383 1399.35312,445.471303 C1481.71457,585.36098 1457.29134,779.173497 1342.78067,894.424561 Z" id="Path" fill="#9EADC8" opacity="0.1" transform="translate(724.000000, 545.000000) scale(-1, -1) translate(-724.000000, -545.000000) "></path>
            <g id="Group" opacity="0.7" transform="translate(1133.000000, 549.000000)" fill="#FF6584">
                <path d="M21.1,0.92 C9.50202025,0.92 0.1,10.3220203 0.1,21.92 C0.1,33.5179797 9.50202025,42.92 21.1,42.92 C32.6979797,42.92 42.1,33.5179797 42.1,21.92 C42.1,10.3220203 32.6979797,0.92 21.1,0.92 L21.1,0.92 Z M21.1,38.92 C11.7111593,38.92 4.1,31.3088407 4.1,21.92 C4.0956709,20.0193953 4.41698523,18.1320964 5.05,16.34 C5.05,16.34 5.05,16.34 5.05,16.34 C7.88048862,8.14531305 16.4241696,3.39343461 24.8791274,5.31131069 C33.3340852,7.22918677 38.9912952,15.2023172 38.0090112,23.8162407 C37.0267271,32.4301642 29.7196794,38.9249225 21.05,38.89 L21.1,38.92 Z" id="Shape"></path>
                <path d="M27.54,31.04 L30.18,28.39 C30.4010648,28.1703678 30.5253789,27.8716215 30.5253789,27.56 C30.5253789,27.2483785 30.4010648,26.9496322 30.18,26.73 L25.41,21.95 L30.18,17.18 C30.4010648,16.9603678 30.5253789,16.6616215 30.5253789,16.35 C30.5253789,16.0383785 30.4010648,15.7396322 30.18,15.52 L27.54,12.87 C27.3186573,12.6483312 27.0182565,12.5237716 26.705,12.5237716 C26.3917435,12.5237716 26.0913427,12.6483312 25.87,12.87 L21.1,17.64 L16.33,12.87 C16.1103678,12.6489352 15.8116215,12.5246211 15.5,12.5246211 C15.1883785,12.5246211 14.8896322,12.6489352 14.67,12.87 L12.02,15.57 C11.7989352,15.7896322 11.6746211,16.0883785 11.6746211,16.4 C11.6746211,16.7116215 11.7989352,17.0103678 12.02,17.23 L16.79,22 L12.02,26.78 C11.7989352,26.9996322 11.6746211,27.2983785 11.6746211,27.61 C11.6746211,27.9216215 11.7989352,28.2203678 12.02,28.44 L14.67,31.09 C14.8896322,31.3110648 15.1883785,31.4353789 15.5,31.4353789 C15.8116215,31.4353789 16.1103678,31.3110648 16.33,31.09 L21.1,26.31 L25.87,31.09 C26.3487633,31.5272263 27.088252,31.5050859 27.54,31.04 L27.54,31.04 Z" id="Path"></path>
            </g>
            <path d="M1112.13,718.91 L1112.13,718.91 C1111.08175,713.395508 1107.86943,708.530202 1103.21,705.4 L1103.21,705.4 C1098.5123,702.253023 1092.74727,701.125239 1087.21,702.27 L1086.58,702.42 C1085.44697,702.681653 1084.33931,703.043063 1083.27,703.5 C1075.52266,706.828115 1070.50553,714.454557 1070.51641,722.886493 C1070.5273,731.318428 1075.56409,738.931894 1083.32,742.24 L1083.92,742.48 C1090.39007,744.999445 1097.68722,744.157972 1103.41404,740.232041 C1109.14086,736.306111 1112.55696,729.803275 1112.54,722.86 C1112.53206,721.533136 1112.39474,720.210209 1112.13,718.91 L1112.13,718.91 Z M1108.25,725.38 C1108.25468,725.399726 1108.25468,725.420274 1108.25,725.44 L1108.25,725.63 C1107.36563,730.852125 1104.09785,735.363696 1099.41179,737.832209 C1094.72573,740.300723 1089.15688,740.444102 1084.35,738.22 C1084.14853,738.133425 1083.95161,738.036633 1083.76,737.93 C1082.64443,737.361296 1081.59762,736.666776 1080.64,735.86 C1076.42983,732.314462 1074.19682,726.949946 1074.64767,721.464227 C1075.09852,715.978509 1078.17744,711.050563 1082.91,708.24 C1083.96833,707.606779 1085.09567,707.096792 1086.27,706.72 L1086.9,706.53 C1092.01262,705.09969 1097.49989,706.139947 1101.73428,709.342228 C1105.96867,712.544509 1108.46395,717.541103 1108.48,722.85 C1108.46931,723.698035 1108.39241,724.54394 1108.25,725.38 L1108.25,725.38 Z" id="Shape" fill="#9EADC8" opacity="0.1"></path>
            <path d="M1097.92,731.94 L1100.57,729.29 C1100.79106,729.070368 1100.91538,728.771621 1100.91538,728.46 C1100.91538,728.148379 1100.79106,727.849632 1100.57,727.63 L1095.8,722.86 L1100.57,718.09 C1100.79167,717.868657 1100.91623,717.568256 1100.91623,717.255 C1100.91623,716.941744 1100.79167,716.641343 1100.57,716.42 L1097.92,713.78 C1097.70037,713.558935 1097.40162,713.434621 1097.09,713.434621 C1096.77838,713.434621 1096.47963,713.558935 1096.26,713.78 L1091.49,718.57 L1086.69,713.78 C1086.47037,713.558935 1086.17162,713.434621 1085.86,713.434621 C1085.54838,713.434621 1085.24963,713.558935 1085.03,713.78 L1082.38,716.42 C1082.15833,716.641343 1082.03377,716.941744 1082.03377,717.255 C1082.03377,717.568256 1082.15833,717.868657 1082.38,718.09 L1087.16,722.86 L1082.38,727.63 C1082.15894,727.849632 1082.03462,728.148379 1082.03462,728.46 C1082.03462,728.771621 1082.15894,729.070368 1082.38,729.29 L1085.03,731.94 C1085.24963,732.161065 1085.54838,732.285379 1085.86,732.285379 C1086.17162,732.285379 1086.47037,732.161065 1086.69,731.94 L1091.47,727.17 L1096.24,731.94 C1096.46037,732.167283 1096.76343,732.295568 1097.08,732.295568 C1097.39657,732.295568 1097.69963,732.167283 1097.92,731.94 Z" id="Path" fill="#9EADC8" opacity="0.1"></path>
            <ellipse id="Oval" fill="#9EADC8" opacity="0.1" cx="1139.54" cy="1125.27" rx="118.88" ry="5.8"></ellipse>
            <path d="M1242.39,714.57 C1242.39,714.57 1214.28,663.19 1219.03,654.83 C1223.78,646.47 1227.25,634.37 1227.25,634.37 C1227.25,634.37 1237.63,627.27 1237.63,624.37 C1237.63,621.47 1245.85,614.76 1250.18,611.84 C1254.51,608.92 1252.34,595.13 1250.18,593.46 C1248.02,591.79 1244.59,585.94 1244.59,585.94 C1244.59,585.94 1247.59,577.59 1244.59,575.08 C1241.59,572.57 1245.03,570.08 1244.59,567.56 C1244.15,565.04 1244.59,555.87 1244.59,555.87 C1241.08,550.99 1237.19,548.71 1233.53,547.87 L1233.21,546.55 L1231.36,538.76 C1231.36,538.76 1240.36,521.51 1225.76,512.48 C1224.72729,511.833485 1223.6476,511.265228 1222.53,510.78 C1222.53,510.78 1222.53,510.36 1222.45,509.65 C1222.25,507.07 1221.64,500.6 1220.33,496.44 C1219.57,494.02 1218.58,492.39 1217.33,492.76 C1217.02304,492.848904 1216.74186,493.010071 1216.51,493.23 C1215.91503,493.769113 1215.39386,494.384431 1214.96,495.06 L1214.96,495.06 C1214.94268,495.100166 1214.91905,495.137302 1214.89,495.17 L1214.89,495.17 C1213.23233,498.145402 1212.07045,501.37098 1211.45,504.72 C1211.00656,506.700084 1210.67272,508.703129 1210.45,510.72 C1209.81756,511.921141 1209.25983,513.160162 1208.78,514.43 C1207.01,519.02 1204.94,526.97 1208.71,532.85 C1211.91,537.85 1216.22,544.72 1219.35,549.72 L1219.45,549.88 L1219.64,550.19 L1219.31,550.4 L1219.36,551.17 L1219.65,555.38 L1222.12,591.75 C1221.39252,591.539128 1220.65052,591.382038 1219.9,591.28 C1218.8307,591.123583 1217.75055,591.053357 1216.67,591.07 C1214.56,582.78 1208.77,575.07 1207.72,566.41 C1207.61359,565.543955 1207.55683,564.672531 1207.55,563.8 C1207.64,558.35 1209,552.88 1208.89,547.44 C1208.89,546.44 1208.89,545.44 1208.79,544.44 L1208.79,544.44 C1208.79,544.17 1208.79,543.89 1208.71,543.61 C1207.59888,535.574913 1202.59664,528.604701 1195.34,524.98 C1192.83,523.73 1190.11,522.9 1187.67,521.53 C1182.03,518.37 1178.42,512.67 1173.3,508.76 C1169.49,505.85 1163.8,504.29 1159.55,505.76 C1157.29685,506.099618 1155.06362,506.560284 1152.86,507.14 L1152.86,507.14 C1147.48839,508.545612 1142.33646,510.6858 1137.55,513.5 C1136.9,513.89 1136.25,514.29 1135.63,514.75 C1134.27626,515.633412 1133.20396,516.88617 1132.54,518.36 C1132.11019,519.608939 1131.94668,520.934043 1132.06,522.25 C1132.06,523.2 1132.06,524.17 1132.12,525.12 C1131.84,541.12 1114.6,553.5 1113.18,569.12 C1113.18,569.49 1113.12,569.86 1113.1,570.23 C1113.1,570.34 1113.1,570.45 1113.1,570.57 C1113.1,571.02 1113.1,571.48 1113.1,571.94 L1113.1,571.94 C1113.1,572.15 1113.1,572.35 1113.1,572.56 C1113.1,572.77 1113.1,572.98 1113.1,573.19 C1113.35,580.04 1116.91,586.42 1117.56,593.24 C1117.62,593.85 1117.65,594.45 1117.66,595.06 C1117.54945,598.193253 1116.95231,601.290256 1115.89,604.24 C1113.72295,604.81755 1111.63672,605.664134 1109.68,606.76 C1104.44,610.13 1094.98,615.95 1091.53,627.08 C1090.64287,629.969553 1090.20114,632.977393 1090.22,636 C1090.16167,646.680751 1089.18474,657.336693 1087.3,667.85 C1086.86389,670.498497 1086.24916,673.114467 1085.46,675.68 C1085.38575,675.929532 1085.3653,676.191979 1085.4,676.45 L1083.32,703.45 L1082.95,708.2 L1082.43,714.96 C1082.43,714.96 1082.58,715.37 1082.8,716.06 C1083.12594,717.085457 1083.39963,718.126797 1083.62,719.18 C1084.20147,721.468352 1084.29348,723.853657 1083.89,726.18 C1083.68449,727.168427 1083.1738,728.067375 1082.43,728.75 C1082.36603,728.806399 1082.30897,728.870177 1082.26,728.94 C1081.67,729.77 1081.14,732.24 1080.68,735.82 C1080.5,737.22 1080.33,738.82 1080.16,740.48 C1079.16,751.13 1078.54,767.07 1078.16,780.25 C1077.8,793.25 1077.67,803.52 1077.67,803.52 C1079.35383,804.606561 1081.15532,805.498915 1083.04,806.18 C1082.9,806.53 1082.75,806.89 1082.61,807.27 C1080.90987,811.682396 1079.8133,816.304148 1079.35,821.01 C1078.51,830.84 1081.26,841.76 1094.97,847.38 C1095.84595,847.744187 1096.74448,848.051491 1097.66,848.3 C1100.66,849.1 1102.87,848.88 1104.5,847.88 C1104.5,848.47 1104.57,849.04 1104.6,849.61 C1104.74,852.05 1104.86,854.28 1104.92,856.15 C1105.35,867.85 1108.25,888.31 1108.25,888.31 C1108.25,888.31 1109.25,896.67 1108.38,899.17 C1107.51,901.67 1108.38,911.7 1108.38,911.7 C1108.38,911.7 1111.38,916.7 1108.38,919.22 C1105.38,921.74 1104.49,934.22 1105.38,935.93 C1105.39082,935.992871 1105.39082,936.057129 1105.38,936.12 C1106.04,940.27 1102.31,1001.93 1102.31,1001.93 C1102.31,1001.93 1098.78,1011.37 1095.97,1021.17 C1093.23,1030.71 1091.17,1040.59 1093.71,1042.44 C1094.97,1043.36 1097.9,1044.05 1101.62,1044.58 C1101.62,1044.99 1101.56,1045.4 1101.52,1045.82 C1101.16,1050.23 1100.59,1054.98 1099.77,1056.18 C1098.58,1057.88 1097.33,1071.06 1096.77,1078.18 L1096.71,1078.97 C1095.42897,1082.00781 1094.35322,1085.12815 1093.49,1088.31 C1093.49,1088.31 1083.92,1112.31 1087.16,1118.54 C1087.46174,1119.09978 1087.86532,1119.59831 1088.35,1120.01 L1088.35,1120.01 C1088.44595,1120.1112 1088.54959,1120.20481 1088.66,1120.29 C1093.27,1123.98 1104.82,1124.75 1109.01,1124.92 L1108.85,1130.86 L1108.85,1131.08 L1114.3,1131.08 L1114.3,1130.93 C1114.3,1130.18 1114.42,1126.74 1114.6,1122.14 C1114.6,1121.32 1114.66,1120.46 1114.7,1119.58 C1114.7,1118.89 1114.77,1118.19 1114.8,1117.47 C1116.40436,1113.20711 1117.20783,1108.68464 1117.17,1104.13 C1117.17575,1098.89939 1117.88203,1093.6931 1119.27,1088.65 C1119.95545,1086.05233 1120.88284,1083.52461 1122.04,1081.1 C1122.04,1081.1 1123.74,1072.1 1121.37,1065.73 C1120.91816,1064.46516 1120.24051,1063.29283 1119.37,1062.27 C1119.37,1062.06 1119.37,1061.85 1119.37,1061.63 C1119.37,1061.41 1119.37,1061.15 1119.37,1060.9 C1119.37,1060.65 1119.37,1060.49 1119.37,1060.27 C1119.31666,1055.96228 1119.746,1051.66214 1120.65,1047.45 C1120.6453,1047.38342 1120.6453,1047.31658 1120.65,1047.25 C1120.73,1046.9 1120.82,1046.57 1120.91,1046.25 L1120.97,1046.03 L1122.74,1046.09 C1128.17,1046.24 1132.16,1046.24 1132.16,1046.24 C1132.16,1046.24 1136.49,1024.1 1136.06,1014.5 C1136.06,1014.08 1136.06,1013.64 1136.06,1013.2 C1135.91,1003.66 1138.68,990.69 1138.68,990.69 L1142.14,956.86 C1142.14,956.86 1140.41,951 1142.14,946.86 C1143.21,944.28 1145.42,939.49 1146.96,936.19 C1147.68,934.66 1148.25,933.46 1148.49,932.94 L1148.63,932.66 C1148.08465,932.473088 1147.56674,932.214129 1147.09,931.89 L1147.09,931.89 C1145.68,930.95 1144.42,929.11 1148.64,926.4 C1155.13,922.22 1152.97,911.78 1152.97,911.78 C1152.97,911.78 1151.06,908.02 1153.31,904.68 C1155.56,901.34 1153.31,888.81 1153.31,888.81 C1155.14559,885.482274 1156.6142,881.96497 1157.69,878.32 C1159.3,873.32 1163.37,848.87 1165.29,837.08 C1165.92,833.21 1166.29,830.71 1166.29,830.71 L1166.35,831.32 L1166.41,831.98 L1166.41,831.98 L1166.95,837.55 L1167.02,838.29 L1168.02,848.82 C1168.02,848.82 1170.02,876.5 1168.77,887.35 C1168.77,887.42 1168.77,887.49 1168.77,887.55 C1168.6725,888.674011 1168.42704,889.780233 1168.04,890.84 C1165.74,896.04 1166.16,916.7 1166.28,921.27 C1166.28,921.64 1166.28,921.94 1166.28,922.19 C1166.28,922.44 1164.65,926.27 1165.06,929.25 L1165.06,929.25 C1165.14307,930.005171 1165.41474,930.72732 1165.85,931.35 C1166.44889,932.322586 1166.71887,933.462097 1166.62,934.6 L1166.62,934.7 C1166.60943,935.181999 1166.56935,935.662899 1166.5,936.14 C1166.19669,938.075486 1165.68712,939.972957 1164.98,941.8 C1164.98,941.8 1162.66,947.9 1163.54,951.09 C1163.54,951.09 1163.54,951.09 1163.54,951.09 C1163.64571,951.503581 1163.84022,951.889181 1164.11,952.22 C1164.31299,952.588421 1164.42606,952.99959 1164.44,953.42 C1164.43529,953.456515 1164.43529,953.493485 1164.44,953.53 C1165.25,960.26 1163.16,989.97 1161.92,1006.23 C1161.42,1012.65 1161.06,1016.97 1161.06,1016.97 L1157.69,1052.51 L1158.03,1052.75 C1158.42,1053.03 1159.15,1053.51 1160.13,1054.09 C1160.13,1054.09 1160.13,1054.14 1160.13,1054.17 L1159.98,1055.24 C1159.49,1058.66 1158.83,1062.64 1158.11,1065.68 C1158.05,1065.91 1158,1066.13 1157.94,1066.34 C1156.62769,1066.56922 1155.37768,1067.0699 1154.27,1067.81 C1146.99,1080.74 1150.21,1090.99 1154.27,1093.97 C1155.42,1094.81 1156.2,1097.16 1156.72,1100.08 L1157.72,1112.97 C1157.72,1113.49 1157.72,1113.97 1157.72,1114.45 C1157.72136,1114.85084 1157.78547,1115.24899 1157.91,1115.63 L1158.22,1119.54 L1158.64,1124.98 L1161.96,1124.98 L1161.96,1118.4 L1162.14,1118.4 C1167.38,1118.58 1175.83,1118.8 1179.51,1118.51 L1179.61,1118.51 C1180,1118.51 1180.33,1118.44 1180.61,1118.4 C1180.80905,1118.37012 1181.00378,1118.3164 1181.19,1118.24 C1183.14,1117.3 1188,1103.52 1183.62,1100.39 C1179.24,1097.26 1178.27,1088.39 1178.27,1088.39 C1177.89,1087.23 1177.51,1086.13 1177.12,1085.08 C1177.12,1084.85 1177.12,1084.63 1177.12,1084.4 C1177,1080.11 1177.05,1075.46 1177.64,1072.94 C1178.3,1070.17 1178.64,1064.35 1178.78,1059.25 C1178.78,1058.86 1178.78,1058.48 1178.78,1058.1 L1178.78,1057.98 C1179.5392,1057.7881 1180.28429,1057.5442 1181.01,1057.25 L1181.17,1057.18 C1182.5095,1056.61926 1183.76478,1055.87551 1184.9,1054.97 L1197.02,1000.68 L1198.31,994.37 L1205.62,958.57 C1205.62,958.57 1203.03,946.04 1205.62,943.96 C1206.62,943.2 1206.83,939.96 1206.77,936.21 C1206.67,929.65 1205.62,921.4 1205.62,921.4 C1205.62,921.4 1209.08,915.97 1210.82,912.63 C1212.56,909.29 1210.82,900.52 1210.82,900.52 L1214.27,880.52 C1214.27,880.52 1218.17,856.57 1227.69,836.57 C1234.69,821.82 1230.23,781.99 1225.69,760.79 C1225.57,760.24 1225.45,759.7 1225.33,759.18 L1225.33,759.1 C1227.47,758.04 1230.09,756.76 1232.89,755.42 L1233.95,754.92 C1237.5,753.25 1241.26,751.53 1244.63,750.1 L1244.85,750.01 C1247.27559,748.952175 1249.75577,748.024196 1252.28,747.23 C1253.02368,747.002581 1253.78701,746.845229 1254.56,746.76 C1260.56,746.33 1242.39,714.57 1242.39,714.57 Z M1107.08,782.57 L1108.88,782.57 C1108.67,782.96 1108.47,783.36 1108.27,783.76 C1108.15,784 1108.03,784.23 1107.92,784.47 C1107.26,785.84 1106.65,787.24 1106.15,788.61 C1106.35,787.13 1106.6,785.52 1106.88,783.8 C1106.95,783.34 1107.01,782.94 1107.08,782.57 Z M1102.22,808.57 C1102.22442,808.523438 1102.22442,808.476562 1102.22,808.43 L1102.07,807.96 C1101.96,807.64 1101.86,807.32 1101.76,807.01 C1102.38,806.816667 1103.01,806.606667 1103.65,806.38 L1103.78,806.33 C1103.78,806.44 1103.78,806.55 1103.78,806.66 C1103.78,807.13 1103.67,807.6 1103.61,808.06 L1103.61,808.06 C1103.61541,808.119878 1103.61541,808.180122 1103.61,808.24 C1103.61,808.62 1103.52,808.98 1103.48,809.34 C1103.39,810.06 1103.3,810.76 1103.22,811.43 C1103.03,810.8 1102.84,810.18 1102.64,809.57 C1102.44,809.28 1102.33,808.94 1102.22,808.57 Z" id="Shape" fill="url(#linearGradient-1)"></path>
            <path d="M1232.04,554.31 L1221.24,558.14 L1217.32,551.64 C1214.32,546.64 1210.16,539.8 1207.09,534.83 C1201.67,526.08 1208.76,512.76 1208.76,512.76 C1208.76,512.76 1210,499.44 1214.58,495.28 C1219.16,491.12 1220.41,512.76 1220.41,512.76 C1238.72,521.09 1228.91,540.65 1228.91,540.65 L1230.69,548.42 L1232.04,554.31 Z" id="Path" fill="#A1616A"></path>
            <path d="M1232.04,554.31 L1221.24,558.14 L1217.32,551.64 L1217.32,551.07 C1217.32,551.07 1223.51,546.82 1230.73,548.42 L1232.04,554.31 Z" id="Path" fill="#000000" opacity="0.1"></path>
            <path d="M1214.58,598.11 L1219.99,593.57 L1217.28,552.35 C1217.28,552.35 1231.23,542.78 1241.64,557.77 C1241.64,557.77 1241.22,566.93 1241.64,569.43 C1242.06,571.93 1238.73,574.43 1241.64,576.92 C1244.55,579.41 1241.64,587.74 1241.64,587.74 C1241.64,587.74 1244.93,593.57 1247.01,595.24 C1249.09,596.91 1251.18,610.64 1247.01,613.56 C1242.84,616.48 1234.94,623.13 1234.94,626.05 C1234.94,628.97 1224.94,636.05 1224.94,636.05 L1216.19,624.39 L1214.58,598.11 Z" id="Path" fill="#5A5773"></path>
            <path d="M1097.58,848.34 C1077.4,839.78 1081.88,818.87 1085.68,808.34 C1086.44182,806.207458 1087.33348,804.12356 1088.35,802.1 L1099.69,795.25 C1099.69,795.25 1102,801.14 1104.47,809.05 C1110.18,827.36 1116.77,856.48 1097.58,848.34 Z" id="Path" fill="#A1616A"></path>
            <path d="M1125.32,1039.13 C1123.95184,1041.78805 1122.943,1044.61614 1122.32,1047.54 C1121.33782,1052.25376 1120.91822,1057.06739 1121.07,1061.88 C1121.15,1065.21 1121.43,1067.39 1121.43,1067.39 L1098.95,1082.85 C1098.95,1082.85 1099.08,1081.04 1099.3,1078.38 C1099.88,1071.3 1101.09,1058.16 1102.23,1056.46 C1103.02,1055.27 1103.57,1050.53 1103.92,1046.14 C1104.27,1041.75 1104.41,1037.88 1104.41,1037.88 C1104.41,1037.88 1131.41,1027.73 1125.32,1039.13 Z" id="Path" fill="#A1616A"></path>
            <path d="M1178.41,1050.22 C1178.41,1050.22 1178.41,1054.52 1178.25,1059.52 C1178.09,1064.52 1177.79,1070.41 1177.16,1073.17 C1176.58,1075.68 1176.54,1080.32 1176.65,1084.59 C1176.8,1089.59 1177.16,1094.09 1177.16,1094.09 C1177.16,1094.09 1154.16,1072.39 1156.55,1070.67 C1157.18,1070.21 1157.8,1068.36 1158.37,1065.9 C1159.07,1062.9 1159.7,1058.9 1160.17,1055.49 C1160.73,1051.49 1161.08,1048.19 1161.08,1048.19 L1178.41,1050.22 Z" id="Path" fill="#A1616A"></path>
            <path d="M1125.32,1039.13 C1123.95184,1041.78805 1122.943,1044.61614 1122.32,1047.54 C1116.16684,1047.38672 1110.02552,1046.91944 1103.92,1046.14 C1104.26,1041.84 1104.41,1037.88 1104.41,1037.88 C1104.41,1037.88 1131.41,1027.73 1125.32,1039.13 Z" id="Path" fill="#000000" opacity="0.1"></path>
            <path d="M1178.41,1050.22 C1178.41,1050.22 1178.41,1054.52 1178.25,1059.52 C1171.09,1061.35 1163.73,1057.69 1160.17,1055.52 C1160.73,1051.52 1161.08,1048.22 1161.08,1048.22 L1178.41,1050.22 Z" id="Path" fill="#000000" opacity="0.1"></path>
            <path d="M1225.4,837.57 C1216.24,857.57 1212.49,881.28 1212.49,881.28 L1209.17,901.28 C1209.17,901.28 1210.83,910.02 1209.17,913.35 C1207.51,916.68 1204.17,922.09 1204.17,922.09 C1204.17,922.09 1206.67,942.5 1204.17,944.57 C1201.67,946.64 1204.17,959.15 1204.17,959.15 L1195.84,1001.2 L1184.18,1055.32 C1172.94,1064.48 1157.98,1052.82 1157.98,1052.82 L1161.28,1017.44 C1161.28,1017.44 1166.28,955.44 1164.2,952.9 C1162.12,950.36 1165.03,942.5 1165.03,942.5 C1165.03,942.5 1167.95,935 1165.87,932.08 C1163.79,929.16 1166.28,922.92 1166.28,922.92 C1166.28,922.92 1165.45,897.53 1167.95,891.7 C1170.45,885.87 1167.95,849.8 1167.95,849.8 L1166.95,838.57 L1166.38,832.35 L1166.32,831.74 C1166.32,831.74 1165.94,834.24 1165.32,838.1 C1163.48,849.85 1159.56,874.2 1158.01,879.21 C1156.93704,882.805184 1155.48908,886.277602 1153.69,889.57 C1153.69,889.57 1155.85,902.06 1153.69,905.39 C1151.53,908.72 1153.36,912.47 1153.36,912.47 C1153.36,912.47 1155.44,922.87 1149.19,927.04 C1142.94,931.21 1149.19,933.28 1149.19,933.28 C1149.19,933.28 1144.61,943.28 1142.95,947.44 C1141.29,951.6 1142.95,957.44 1142.95,957.44 L1139.69,991.15 C1139.69,991.15 1136.77,1005.3 1137.19,1014.88 C1137.61,1024.46 1133.39,1046.57 1133.39,1046.57 C1133.39,1046.57 1101.33,1046.57 1096.39,1042.82 C1091.45,1039.07 1104.69,1002.39 1104.69,1002.39 C1104.69,1002.39 1108.44,938.27 1107.6,936.6 C1106.76,934.93 1107.6,922.45 1110.52,919.95 C1113.44,917.45 1110.52,912.46 1110.52,912.46 C1110.52,912.46 1109.69,902.46 1110.52,899.97 C1111.35,897.48 1110.39,889.14 1110.39,889.14 C1110.39,889.14 1107.6,868.74 1107.19,857.08 C1106.78,845.42 1104.69,819.19 1104.69,819.19 C1104.69,819.19 1106.87,802.97 1107.2,795.25 C1107.32,792.41 1108.59,788.87 1110.15,785.53 C1111.95335,781.75628 1114.02534,778.116922 1116.35,774.64 C1116.35,774.64 1215.02,745.5 1219.19,748.41 C1220.29,749.18 1221.89,754.41 1223.47,761.99 C1227.84,783.12 1232.14,822.81 1225.4,837.57 Z" id="Path" fill="#605D82"></path>
            <circle id="Oval" fill="#A1616A" cx="1164.61" cy="554.31" r="28.73"></circle>
            <path d="M1223.44,761.99 C1220.13,763.68 1217.91,764.86 1217.91,764.86 C1217.91,764.86 1171.28,786.93 1157.98,785.68 C1147.72,784.68 1121.53,785.24 1110.12,785.53 C1111.92335,781.75628 1113.99534,778.116922 1116.32,774.64 C1116.32,774.64 1214.99,745.5 1219.16,748.41 C1220.26,749.18 1221.86,754.39 1223.44,761.99 Z" id="Path" fill="#000000" opacity="0.1"></path>
            <path d="M1144.63,600.19 C1144.63,600.19 1117.98,604.36 1111.74,608.52 C1105.5,612.68 1093,620.57 1093,637.67 C1093,654.77 1090.09,672.22 1088.42,677.22 C1086.75,682.22 1114.69,722.57 1114.69,722.57 L1104.69,783.77 C1104.69,783.77 1144.69,782.53 1158.01,783.77 C1171.33,785.01 1217.94,762.96 1217.94,762.96 C1217.94,762.96 1245.42,748.38 1251.25,747.96 C1257.08,747.54 1239.59,715.9 1239.59,715.9 C1239.59,715.9 1212.53,664.69 1217.11,656.36 C1221.69,648.03 1225.02,635.96 1225.02,635.96 L1220.02,593.49 C1220.02,593.49 1212.53,591 1206.28,595.57 C1200.03,600.14 1178.8,597.66 1178.8,597.66 L1144.63,600.19 Z" id="Path" fill="#5A5773"></path>
            <path d="M1099.46,674.3 L1089.05,677.22 L1086.13,716.36 C1086.13,716.36 1089.88,726.76 1086.13,730.1 C1082.38,733.44 1081.55,804.62 1081.55,804.62 C1081.55,804.62 1093.63,813.37 1107.78,806.7 C1107.78,806.7 1105.7,798.79 1111.95,770.06 C1118.2,741.33 1118.19,726.76 1118.19,726.76 C1118.19,726.76 1118.19,690.96 1121.11,685.13 C1124.03,679.3 1121.11,664.73 1121.11,664.73 C1121.11,664.73 1115.28,656.82 1115.69,653.9 C1116.1,650.98 1099.46,674.3 1099.46,674.3 Z" id="Path" fill="#000000" opacity="0.1"></path>
            <path d="M1104.45,809.05 C1098.31867,811.117522 1091.64298,810.872119 1085.68,808.36 C1086.44182,806.227458 1087.33348,804.14356 1088.35,802.12 L1099.69,795.25 C1099.69,795.25 1101.98,801.14 1104.45,809.05 Z" id="Path" fill="#000000" opacity="0.1"></path>
            <path d="M1098.83,674.3 L1088.42,677.22 L1085.51,716.36 C1085.51,716.36 1089.26,726.76 1085.51,730.1 C1081.76,733.44 1080.93,804.62 1080.93,804.62 C1080.93,804.62 1093,813.37 1107.16,806.7 C1107.16,806.7 1105.08,798.79 1111.32,770.06 C1117.56,741.33 1117.57,726.76 1117.57,726.76 C1117.57,726.76 1117.57,690.96 1120.48,685.13 C1123.39,679.3 1120.48,664.73 1120.48,664.73 C1120.48,664.73 1114.65,656.82 1115.07,653.9 C1115.49,650.98 1098.83,674.3 1098.83,674.3 Z" id="Path" fill="#5A5773"></path>
            <path d="M1205.42,680.57 C1205.42,680.57 1200.01,727.2 1184.18,735.94 C1184.18,735.92 1219.57,725.93 1205.42,680.57 Z" id="Path" fill="#000000" opacity="0.1"></path>
            <path d="M1125.9,684.71 C1125.9,684.71 1145.46,694.29 1140.9,700.95 C1136.34,707.61 1125.9,684.71 1125.9,684.71 Z" id="Path" fill="#000000" opacity="0.1"></path>
            <path d="M1125.9,703.87 C1125.9,703.87 1138.39,716.77 1135.9,721.35 C1133.41,725.93 1125.9,703.87 1125.9,703.87 Z" id="Path" fill="#000000" opacity="0.1"></path>
            <path d="M1226.69,596.86 C1226.69,596.86 1231.59,605.19 1232.06,610.6 C1232.53,616.01 1226.69,596.86 1226.69,596.86 Z" id="Path" fill="#000000" opacity="0.1"></path>
            <path d="M1226.69,585.62 C1226.69,585.62 1229.15,583.54 1235.43,585.62 C1241.71,587.7 1226.69,585.62 1226.69,585.62 Z" id="Path" fill="#000000" opacity="0.1"></path>
            <path d="M1202.61,828.98 C1192.29398,830.443473 1181.7742,829.096113 1172.16,825.08 L1166.91,838.51 L1166.34,832.29 C1167.19,827.08 1168.86,821.49 1172.16,820.08 C1172.16,820.08 1183.69,829.29 1202.61,828.98 Z" id="Path" fill="#000000" opacity="0.1"></path>
            <path d="M1117.2,846.46 C1117.2,846.46 1142.81,851.77 1149.99,850.84 L1117.2,846.46 Z" id="Path" fill="#000000" opacity="0.1"></path>
            <path d="M1119.86,853.18 C1119.86,853.18 1130.79,852.71 1136.25,854.9 L1119.86,853.18 Z" id="Path" fill="#000000" opacity="0.1"></path>
            <path d="M1121.11,857.71 C1126.09794,858.763776 1131.15953,859.432414 1136.25,859.71 L1121.11,857.71 Z" id="Path" fill="#000000" opacity="0.1"></path>
            <path d="M1120.48,915.01 C1120.95,914.69 1142.34,909.7 1145,913.29 L1120.48,915.01 Z" id="Path" fill="#000000" opacity="0.1"></path>
            <path d="M1120.48,921.57 C1120.48,921.57 1139.06,919.39 1139.53,921.57 C1140,923.75 1120.48,921.57 1120.48,921.57 Z" id="Path" fill="#000000" opacity="0.1"></path>
            <path d="M1120.48,927.5 C1120.48,927.5 1140.31,923.44 1142.65,924.37 C1144.99,925.3 1120.48,927.5 1120.48,927.5 Z" id="Path" fill="#000000" opacity="0.1"></path>
            <path d="M1121.42,1067.39 L1098.94,1082.85 C1098.94,1082.85 1099.07,1081.04 1099.29,1078.38 C1104.29,1066.07 1110.8,1059.58 1110.8,1059.58 C1115.87,1058.27 1119.07,1059.49 1121.06,1061.88 C1121.14,1065.21 1121.42,1067.39 1121.42,1067.39 Z" id="Path" fill="#000000" opacity="0.1"></path>
            <path d="M1123.61,1081.29 C1120.43874,1088.52145 1118.84011,1096.34416 1118.92,1104.24 C1119.04509,1110.72794 1117.39945,1117.12728 1114.16,1122.75 C1113.69308,1123.54023 1113.16479,1124.29255 1112.58,1125 C1112.58,1125 1096.96,1124.88 1091.49,1120.34 C1090.89077,1119.8673 1090.39689,1119.27465 1090.04,1118.6 C1086.91,1112.36 1096.13,1088.47 1096.13,1088.47 C1100.97,1070.04 1110.8,1060.21 1110.8,1060.21 C1128.29,1055.68 1123.61,1081.29 1123.61,1081.29 Z" id="Path" fill="#5A5773"></path>
            <path d="M1114.16,1122.75 C1113.69308,1123.54023 1113.16479,1124.29255 1112.58,1125 C1112.58,1125 1096.96,1124.88 1091.49,1120.34 C1094.18,1111.44 1102.77,1084.52 1106.78,1089.09 C1110.56,1093.39 1113.19,1114.09 1114.16,1122.75 Z" id="Path" fill="#000000" opacity="0.1"></path>
            <path d="M1112,1090.77 L1110.91,1131.1 L1116.15,1131.1 C1116.15,1131.1 1117,1095.72 1119.34,1090.77 C1121.68,1085.82 1112,1090.77 1112,1090.77 Z" id="Path" fill="#5A5773"></path>
            <path d="M1177.16,1094.09 C1177.16,1094.09 1154.16,1072.39 1156.55,1070.67 C1157.18,1070.21 1157.8,1068.36 1158.37,1065.9 C1162.78,1065.12 1170.37,1066.97 1176.65,1084.59 C1176.8,1089.57 1177.16,1094.09 1177.16,1094.09 Z" id="Path" fill="#000000" opacity="0.1"></path>
            <path d="M1180.59,1118.29 C1180.41168,1118.35684 1180.22756,1118.40705 1180.04,1118.44 C1177.34,1118.92 1167.39,1118.64 1161.82,1118.44 C1159.71219,1118.34005 1158.04456,1116.6199 1158.01,1114.51 C1158.01,1113.01 1158.01,1111.18 1157.89,1109.23 C1157.63,1103.07 1156.89,1095.74 1154.68,1094.09 C1150.77,1091.09 1147.68,1080.9 1154.68,1068.01 C1154.68,1068.01 1168.1,1057.77 1177.78,1088.57 C1177.78,1088.57 1178.72,1097.37 1182.94,1100.49 C1187.16,1103.61 1182.47,1117.35 1180.59,1118.29 Z" id="Path" fill="#5A5773"></path>
            <path d="M1180.04,1118.44 C1177.34,1118.92 1167.39,1118.64 1161.82,1118.44 C1159.71219,1118.34005 1158.04456,1116.6199 1158.01,1114.51 C1158.01,1113.01 1158.01,1111.18 1157.89,1109.23 C1159.58,1101.76 1162.01,1094.09 1165.14,1092.34 C1165.14,1092.34 1174.61,1091.27 1180.04,1118.44 Z" id="Path" fill="#000000" opacity="0.1"></path>
            <polygon id="Path" fill="#5A5773" points="1156.38 1091.43 1158.89 1125 1162.09 1125 1162.09 1088.57"></polygon>
            <path d="M1164.2,508.57 C1155.12866,509.245255 1146.34755,512.066043 1138.58,516.8 C1136.58,518.01 1134.58,519.47 1133.75,521.64 C1133.03,523.52 1133.33,525.64 1133.36,527.64 C1133.63,544.87 1114.43,557.9 1115.03,575.11 C1115.27,581.94 1118.7,588.3 1119.33,595.11 C1120.38,606.46 1113.66,616.92 1107.22,626.33 C1113.85426,626.729628 1120.38825,624.563563 1125.47,620.28 C1132.28094,642.937011 1133.16922,666.961891 1128.05,690.06 L1137.26,690.06 C1138.17015,690.000724 1139.08323,690.116132 1139.95,690.4 C1140.76034,690.780308 1141.48499,691.321243 1142.08,691.99 C1150.69,700.56 1156.46,713.23 1153.17,724.93 L1172.77,717.58 C1177.46,715.82 1182.22,714.03 1186.3,711.12 C1190.38,708.21 1193.8,704.02 1194.66,699.12 C1195.19,696.12 1195.02,692.54 1197.49,690.8 C1198.70431,690.144748 1200.00323,689.660178 1201.35,689.36 C1206.73,687.47 1209.11,681.25 1210.21,675.65 C1211.54944,668.779435 1211.96978,661.761323 1211.46,654.78 C1210.59,643.08 1207.13,631.2 1209.98,619.78 C1211.59,613.37 1215.17,607.39 1215.46,600.78 C1215.93,589.86 1207.4,580.47 1206.13,569.62 C1205.24,562.05 1207.97,554.41 1207.08,546.85 C1206.07714,538.930782 1201.27313,531.999123 1194.21,528.28 C1191.8,527.04 1189.21,526.2 1186.83,524.84 C1181.4,521.69 1177.93,516.01 1173,512.11 C1168.07,508.21 1159.86,506.74 1156.15,511.82 L1164.2,508.57 Z" id="Path" fill="#000000" opacity="0.1"></path>
            <path d="M1164.2,507.29 C1155.12446,507.980451 1146.34306,510.818468 1138.58,515.57 C1136.58,516.78 1134.58,518.24 1133.75,520.42 C1133.03,522.3 1133.33,524.42 1133.36,526.42 C1133.63,543.64 1114.43,556.67 1115.03,573.88 C1115.27,580.71 1118.7,587.07 1119.33,593.88 C1120.38,605.24 1113.66,615.69 1107.22,625.1 C1113.85426,625.499628 1120.38825,623.333563 1125.47,619.05 C1132.28094,641.707011 1133.16922,665.731891 1128.05,688.83 L1137.26,688.83 C1138.17015,688.770724 1139.08323,688.886132 1139.95,689.17 C1140.76034,689.550308 1141.48499,690.091243 1142.08,690.76 C1150.69,699.33 1156.46,712 1153.17,723.7 L1172.77,716.35 C1177.46,714.59 1182.22,712.8 1186.3,709.89 C1190.38,706.98 1193.8,702.79 1194.66,697.89 C1195.19,694.89 1195.02,691.31 1197.49,689.57 C1198.70301,688.914166 1200.00248,688.432754 1201.35,688.14 C1206.73,686.24 1209.11,680.02 1210.21,674.42 C1211.54944,667.549435 1211.96978,660.531323 1211.46,653.55 C1210.59,641.85 1207.13,629.97 1209.98,618.55 C1211.59,612.14 1215.17,606.16 1215.46,599.55 C1215.93,588.63 1207.4,579.24 1206.13,568.39 C1205.24,560.82 1207.97,553.18 1207.08,545.62 C1206.07714,537.700782 1201.27313,530.769123 1194.21,527.05 C1191.8,525.81 1189.21,524.98 1186.83,523.61 C1181.4,520.46 1177.93,514.78 1173,510.88 C1168.07,506.98 1159.86,505.51 1156.15,510.59 L1164.2,507.29 Z" id="Path" fill="#4A4347"></path>
            <g id="Group" opacity="0.1" transform="translate(1107.000000, 522.000000)" fill="#000000">
                <path d="M26.34,0.2 C26.3000655,0.58872198 26.2800393,0.979232115 26.28,1.37 C26.31,0.98 26.33,0.57 26.34,0.2 Z" id="Path"></path>
                <path d="M99.06,40.24 C99.42,34.94 100.6,29.62 100.16,24.34 C99.79,29.64 98.61,34.95 99.06,40.24 Z" id="Path"></path>
                <path d="M12.33,66.57 C11.75,60.37 8.86,54.57 8.18,48.37 C8.04459273,49.5046487 7.99445218,50.6478533 8.03,51.79 C8.27,58.55 11.62,64.85 12.3,71.58 C12.4652549,69.9145392 12.4752982,68.2373204 12.33,66.57 L12.33,66.57 Z" id="Path"></path>
                <path d="M102.98,91.22 C102.043304,95.2891634 101.70641,99.4733901 101.98,103.64 C102.084642,101.210457 102.419475,98.796314 102.98,96.43 C104.59,90.02 108.17,84.04 108.46,77.43 C108.507249,76.2542506 108.45372,75.0766145 108.3,73.91 C107.56,79.86 104.45,85.35 102.98,91.22 Z" id="Path"></path>
                <path d="M18.47,91.76 C14.3033849,95.2624077 9.13854364,97.3619367 3.71,97.76 C2.57,99.54 1.39,101.29 0.22,103 C6.85425665,103.399628 13.3882532,101.233563 18.47,96.95 C22.1167485,109.083752 24.0751454,121.661909 24.29,134.33 C24.5806757,119.923388 22.6169592,105.559916 18.47,91.76 Z" id="Path"></path>
                <path d="M103.21,147.04 C102.11,152.64 99.73,158.86 94.35,160.76 C93.005138,161.061783 91.7068764,161.542745 90.49,162.19 C88.02,163.94 88.19,167.54 87.67,170.51 C86.8,175.45 83.39,179.65 79.3,182.56 C75.21,185.47 70.46,187.26 65.77,189.02 L47.07,196.02 C46.9779588,197.901063 46.6760872,199.765959 46.17,201.58 L65.77,194.23 C70.46,192.47 75.22,190.68 79.3,187.77 C83.38,184.86 86.8,180.67 87.67,175.77 C88.19,172.77 88.02,169.19 90.49,167.45 C91.7030087,166.794166 93.0024824,166.312754 94.35,166.02 C99.73,164.12 102.11,157.9 103.21,152.3 C104.348585,146.472408 104.821617,140.534354 104.62,134.6 C104.483869,138.777733 104.012352,142.937779 103.21,147.04 L103.21,147.04 Z" id="Path"></path>
                <path d="M35.08,163.43 C34.484985,162.761243 33.7603366,162.220308 32.95,161.84 C32.0832263,161.556132 31.170145,161.440724 30.26,161.5 L22.09,161.5 C21.77,163.25 21.43,164.99 21.09,166.72 L30.3,166.72 C31.210145,166.660724 32.1232263,166.776132 32.99,167.06 C33.8003366,167.440308 34.524985,167.981243 35.12,168.65 C41.42,174.92 46.2,183.39 47.01,192.07 C48.01,181.64 42.69,170.95 35.08,163.43 Z" id="Path"></path>
            </g>
            <path d="M1096.39,719.48 C1096.39,719.48 1103.83,716.36 1105.49,719.48 C1107.15,722.6 1096.39,719.48 1096.39,719.48 Z" id="Path" fill="#000000" opacity="0.1"></path>
            <path d="M1098.97,724.83 C1098.97,724.83 1106.41,721.7 1108.08,724.83 C1109.75,727.96 1098.97,724.83 1098.97,724.83 Z" id="Path" fill="#000000" opacity="0.1"></path>
            <path d="M1375.85,1063.48 C1375.85,1063.48 1381.35,1070.67 1373.32,1081.48 C1365.29,1092.29 1358.67,1101.48 1361.32,1108.25 C1361.32,1108.25 1373.44,1088.1 1383.32,1087.82 C1393.2,1087.54 1386.69,1075.57 1375.85,1063.48 Z" id="Path" fill="#9EADC8"></path>
            <path d="M1375.85,1063.48 C1376.32956,1064.17586 1376.70674,1064.93695 1376.97,1065.74 C1386.59,1077.04 1391.72,1087.59 1382.47,1087.85 C1373.86,1088.1 1363.53,1103.5 1361.05,1107.39 C1361.13157,1107.69138 1361.22836,1107.98842 1361.34,1108.28 C1361.34,1108.28 1373.46,1088.13 1383.34,1087.85 C1393.22,1087.57 1386.69,1075.57 1375.85,1063.48 Z" id="Path" fill="#000000" opacity="0.1"></path>
            <path d="M1386.06,1072.64 C1386.06,1075.17 1385.78,1077.22 1385.43,1077.22 C1385.08,1077.22 1384.8,1075.22 1384.8,1072.64 C1384.8,1070.06 1385.15,1071.3 1385.5,1071.3 C1385.85,1071.3 1386.06,1070.11 1386.06,1072.64 Z" id="Path" fill="#FFD037"></path>
            <path d="M1389.57,1075.66 C1387.35,1076.87 1385.41,1077.6 1385.25,1077.29 C1385.09,1076.98 1386.74,1075.75 1388.96,1074.54 C1391.18,1073.33 1390.31,1074.22 1390.47,1074.54 C1390.63,1074.86 1391.79,1074.45 1389.57,1075.66 Z" id="Path" fill="#FFD037"></path>
            <path d="M1346.83,1063.48 C1346.83,1063.48 1341.34,1070.67 1349.37,1081.48 C1357.4,1092.29 1364.02,1101.48 1361.37,1108.25 C1361.37,1108.25 1349.26,1088.1 1339.37,1087.82 C1329.48,1087.54 1335.99,1075.57 1346.83,1063.48 Z" id="Path" fill="#9EADC8"></path>
            <path d="M1346.83,1063.48 C1346.35523,1064.17866 1345.97839,1064.93906 1345.71,1065.74 C1336.09,1077.04 1330.97,1087.59 1340.21,1087.85 C1348.83,1088.1 1359.21,1103.5 1361.64,1107.39 C1361.55959,1107.69291 1361.45937,1107.99022 1361.34,1108.28 C1361.34,1108.28 1349.23,1088.13 1339.34,1087.85 C1329.45,1087.57 1335.99,1075.57 1346.83,1063.48 Z" id="Path" fill="#000000" opacity="0.1"></path>
            <path d="M1336.62,1072.64 C1336.62,1075.17 1336.91,1077.22 1337.26,1077.22 C1337.61,1077.22 1337.89,1075.22 1337.89,1072.64 C1337.89,1070.06 1337.54,1071.3 1337.19,1071.3 C1336.84,1071.3 1336.62,1070.11 1336.62,1072.64 Z" id="Path" fill="#FFD037"></path>
            <path d="M1333.12,1075.66 C1335.34,1076.87 1337.27,1077.6 1337.44,1077.29 C1337.61,1076.98 1335.94,1075.75 1333.72,1074.54 C1331.5,1073.33 1332.38,1074.22 1332.21,1074.54 C1332.04,1074.86 1330.9,1074.45 1333.12,1075.66 Z" id="Path" fill="#FFD037"></path>
            <path d="M1338.37,1107.34 C1338.37,1107.34 1353.73,1106.86 1358.37,1103.57 C1363.01,1100.28 1382,1096.34 1383.14,1101.57 C1384.28,1106.8 1406.23,1127.86 1388.89,1128 C1371.55,1128.14 1348.59,1125.3 1343.97,1122.49 C1339.35,1119.68 1338.37,1107.34 1338.37,1107.34 Z" id="Path" fill="#A8A8A8"></path>
            <path d="M1389.19,1126.21 C1371.85,1126.35 1348.89,1123.51 1344.27,1120.7 C1340.76,1118.55 1339.35,1110.86 1338.88,1107.32 L1338.37,1107.32 C1338.37,1107.32 1339.37,1119.7 1343.96,1122.52 C1348.55,1125.34 1371.54,1128.17 1388.88,1128.03 C1393.88,1128.03 1395.61,1126.21 1395.52,1123.57 C1394.82,1125.19 1392.91,1126.18 1389.19,1126.21 Z" id="Path" fill="#000000" opacity="0.2"></path>
            <path d="M832.13,1094.81 C832.13,1094.81 789.85,1092.26 794.83,1121.88 C794.83,1121.88 793.83,1127.12 798.59,1129.5 C798.59,1129.5 798.67,1127.3 802.93,1128.05 C804.446324,1128.30078 805.986642,1128.37461 807.52,1128.27 C809.59488,1128.12456 811.566735,1127.31056 813.14,1125.95 L813.14,1125.95 C813.14,1125.95 825.02,1121.04 829.64,1101.62 C829.64,1101.62 833.06,1097.38 832.92,1096.29 L825.79,1099.29 C825.79,1099.29 828.23,1104.43 826.31,1108.71 C826.31,1108.71 826.08,1099.47 824.71,1099.71 C824.43,1099.76 821,1101.49 821,1101.49 C821,1101.49 825.2,1110.49 822,1116.98 C822,1116.98 823.2,1105.93 819.66,1102.14 L814.66,1105.07 C814.66,1105.07 819.56,1114.34 816.24,1121.89 C816.24,1121.89 817.09,1110.3 813.6,1105.79 L809.05,1109.34 C809.05,1109.34 813.66,1118.47 810.85,1124.73 C810.85,1124.73 810.48,1111.24 808.07,1110.22 C808.07,1110.22 804.07,1113.73 803.48,1115.22 C803.48,1115.22 806.63,1121.84 804.68,1125.34 C804.68,1125.34 803.48,1116.34 802.49,1116.34 C802.49,1116.34 798.49,1122.29 798.11,1126.34 C798.11,1126.34 798.28,1120.27 801.53,1115.74 C799.242209,1116.16785 797.131065,1117.25994 795.46,1118.88 C795.46,1118.88 796.07,1114.67 802.51,1114.3 C802.51,1114.3 805.79,1109.79 806.66,1109.51 C806.66,1109.51 800.26,1108.98 796.38,1110.7 C796.38,1110.7 799.8,1106.7 807.84,1108.53 L812.33,1104.86 C812.33,1104.86 803.9,1103.71 800.33,1104.98 C800.33,1104.98 804.44,1101.47 813.54,1104.03 L818.43,1101.1 C818.43,1101.1 811.25,1099.56 806.97,1100.1 C806.97,1100.1 811.48,1097.67 819.87,1100.31 L823.36,1098.74 C823.36,1098.74 818.1,1097.74 816.56,1097.54 C815.02,1097.34 814.94,1096.95 814.94,1096.95 C818.271629,1096.39377 821.692296,1096.77461 824.82,1098.05 C824.82,1098.05 832.26,1095.28 832.13,1094.81 Z" id="Path" fill="#9EADC8"></path>
            <ellipse id="Oval" fill="#9EADC8" opacity="0.1" cx="803" cy="1132.08" rx="29.92" ry="5.06"></ellipse>
            <path d="M758.06,1096.39 C758.06,1096.39 734.22,1094.95 737.06,1111.65 C736.762606,1113.38828 737.618534,1115.12032 739.18,1115.94 C739.18,1115.94 739.18,1114.71 741.62,1115.13 C742.475729,1115.27058 743.344938,1115.31086 744.21,1115.25 C745.381973,1115.17381 746.49614,1114.71338 747.38,1113.94 L747.38,1113.94 C747.38,1113.94 754.08,1111.18 756.68,1100.23 C756.68,1100.23 758.61,1097.84 758.53,1097.23 L754.53,1098.95 C754.53,1098.95 755.91,1101.85 754.83,1104.26 C754.83,1104.26 754.7,1099.06 753.92,1099.18 C753.77,1099.18 751.83,1100.18 751.83,1100.18 C751.83,1100.18 754.2,1105.24 752.41,1108.91 C752.41,1108.91 753.09,1102.69 751.09,1100.55 L748.26,1102.2 C748.26,1102.2 751.03,1107.42 749.15,1111.68 C749.15,1111.68 749.63,1105.15 747.67,1102.61 L745.1,1104.61 C745.1,1104.61 747.7,1109.75 746.1,1113.29 C746.1,1113.29 745.9,1105.68 744.54,1105.1 C743.564117,1105.92255 742.69413,1106.86308 741.95,1107.9 C741.95,1107.9 743.73,1111.63 742.62,1113.6 C742.62,1113.6 741.95,1108.54 741.39,1108.51 C741.39,1108.51 739.16,1111.87 738.92,1114.17 C739.028542,1112.03581 739.693936,1109.96723 740.85,1108.17 C739.561741,1108.41374 738.372921,1109.029 737.43,1109.94 C737.43,1109.94 737.77,1107.57 741.43,1107.36 C741.43,1107.36 743.28,1104.82 743.78,1104.66 C743.78,1104.66 740.17,1104.36 737.98,1105.33 C737.98,1105.33 739.9,1103.09 744.44,1104.11 L746.97,1102.04 C746.97,1102.04 742.22,1101.39 740.2,1102.11 C740.2,1102.11 742.52,1100.11 747.65,1101.57 L750.41,1099.92 C748.289801,1099.4557 746.118469,1099.26747 743.95,1099.36 C743.95,1099.36 746.49,1097.99 751.22,1099.48 L753.22,1098.59 C753.22,1098.59 750.22,1098.01 749.38,1097.92 C748.54,1097.83 748.47,1097.59 748.47,1097.59 C750.348255,1097.27681 752.276589,1097.49145 754.04,1098.21 C754.04,1098.21 758.13,1096.65 758.06,1096.39 Z" id="Path" fill="#9EADC8"></path>
            <ellipse id="Oval" fill="#9EADC8" opacity="0.1" cx="741.63" cy="1117.4" rx="16.87" ry="2.85"></ellipse>
            <path d="M803.43,1060.98 C803.43,1060.98 774.65,1059.24 778.05,1079.41 C777.687765,1081.5068 778.71736,1083.5983 780.6,1084.59 C780.6,1084.59 780.6,1083.09 783.55,1083.59 C784.583615,1083.76467 785.634418,1083.81503 786.68,1083.74 C788.092021,1083.64596 789.434099,1083.09086 790.5,1082.16 L790.5,1082.16 C790.5,1082.16 798.59,1078.82 801.74,1065.6 C801.74,1065.6 804.07,1062.72 803.97,1061.97 L799.12,1064.05 C799.12,1064.05 800.78,1067.55 799.47,1070.46 C799.47,1070.46 799.31,1064.18 798.38,1064.32 C798.19,1064.32 795.86,1065.54 795.86,1065.54 C795.86,1065.54 798.71,1071.64 796.56,1076.08 C796.56,1076.08 797.38,1068.56 794.97,1065.98 L791.55,1067.98 C791.55,1067.98 794.88,1074.29 792.62,1079.43 C792.62,1079.43 793.2,1071.54 790.83,1068.43 L787.73,1070.85 C787.73,1070.85 790.87,1077.06 788.95,1081.33 C788.95,1081.33 788.7,1072.14 787.06,1071.45 C787.06,1071.45 784.35,1073.84 783.94,1074.82 C783.94,1074.82 786.08,1079.33 784.75,1081.71 C784.75,1081.71 783.93,1075.59 783.26,1075.56 C783.26,1075.56 780.57,1079.62 780.26,1082.39 C780.39478,1079.82151 781.197943,1077.33274 782.59,1075.17 C781.032583,1075.46702 779.596578,1076.21458 778.46,1077.32 C778.46,1077.32 778.88,1074.45 783.26,1074.2 C783.26,1074.2 785.49,1071.12 786.09,1070.94 C786.09,1070.94 781.73,1070.57 779.09,1071.74 C779.09,1071.74 781.41,1069.04 786.88,1070.27 L789.94,1067.77 C789.94,1067.77 784.21,1066.99 781.77,1067.85 C781.77,1067.85 784.57,1065.46 790.77,1067.21 L794.1,1065.21 C794.1,1065.21 789.21,1064.21 786.29,1064.54 C786.29,1064.54 789.37,1062.88 795.07,1064.68 L797.45,1063.61 C797.45,1063.61 793.87,1062.91 792.82,1062.8 C791.77,1062.69 791.72,1062.4 791.72,1062.4 C793.988482,1062.01546 796.319271,1062.27174 798.45,1063.14 C798.45,1063.14 803.52,1061.29 803.43,1060.98 Z" id="Path" fill="#9EADC8"></path>
            <ellipse id="Oval" fill="#9EADC8" opacity="0.1" cx="783.61" cy="1086.34" rx="20.37" ry="3.44"></ellipse>
            <ellipse id="Oval" fill="#9EADC8" opacity="0.1" cx="993.55" cy="1087.76" rx="29.92" ry="5.06"></ellipse>
            <path d="M973.45,1064.25 C973.45,1064.25 990.52,1063.73 995.67,1060.07 C1000.82,1056.41 1021.92,1052.07 1023.2,1057.9 C1024.48,1063.73 1048.85,1087.12 1029.58,1087.28 C1010.31,1087.44 984.8,1084.28 979.67,1081.15 C974.54,1078.02 973.45,1064.25 973.45,1064.25 Z" id="Path" fill="#A8A8A8"></path>
            <path d="M1029.92,1085.23 C1010.65,1085.39 985.15,1082.23 980.01,1079.1 C976.1,1076.72 974.55,1068.18 974.01,1064.23 L973.44,1064.23 C973.44,1064.23 974.53,1078 979.66,1081.13 C984.79,1084.26 1010.3,1087.41 1029.57,1087.26 C1035.13,1087.21 1037.05,1085.26 1036.95,1082.26 C1036.18,1084.09 1034.06,1085.2 1029.92,1085.23 Z" id="Path" fill="#000000" opacity="0.2"></path>
        </g>
    </g>
</svg>