<?xml version="1.0" encoding="UTF-8"?>
<svg width="678px" height="649px" viewBox="0 0 678 649" version="1.1" xmlns="http://www.w3.org/2000/svg" xmlns:xlink="http://www.w3.org/1999/xlink">
    <!-- Generator: Sketch 54.1 (76490) - https://sketchapp.com -->
    <title>undraw_happy_feeling_slmw</title>
    <desc>Created with Sketch.</desc>
    <g id="Page-1" stroke="none" stroke-width="1" fill="none" fill-rule="evenodd">
        <g id="Icon-Set" transform="translate(-4230.000000, -292.000000)">
            <g id="undraw_happy_feeling_slmw" transform="translate(4230.000000, 291.000000)">
                <path d="M660.91078,559.63063 C660.91078,591.89298 509.18814,649.13374 322.02878,649.13374 C134.86942,649.13374 0.91078,533.13521 0.91078,500.87287 C0.91078,468.61053 134.86944,532.30144 322.02878,532.30144 C509.18812,532.30144 660.91078,527.36828 660.91078,559.63063 Z" id="Path" fill="#3F3D56" fill-rule="nonzero"></path>
                <path d="M660.91078,559.63063 C660.91078,591.89298 509.18814,649.13374 322.02878,649.13374 C134.86942,649.13374 0.91078,533.13521 0.91078,500.87287 C0.91078,468.61053 134.86944,532.30144 322.02878,532.30144 C509.18812,532.30144 660.91078,527.36828 660.91078,559.63063 Z" id="Path" fill="#000000" fill-rule="nonzero" opacity="0.1"></path>
                <path d="M660.91078,559.28902 C660.91078,591.55136 509.18814,617.70516 322.02878,617.70516 C134.86942,617.70516 0.91078,533.13521 0.91078,500.87287 C0.91078,468.61053 134.86944,500.87287 322.02878,500.87287 C509.18812,500.87287 660.91078,527.02667 660.91078,559.28902 Z" id="Path" fill="#3F3D56" fill-rule="nonzero"></path>
                <g id="Group" opacity="0.7" transform="translate(538.000000, 0.000000)">
                    <path d="M111.69277,71.83276 C99.40077,95.69114 60.4416,123.80464 36.58321,111.51263 C12.72482,99.22062 13.00192,51.17784 25.29392,27.31946 C37.5885824,3.46618009 66.8906686,-5.90624221 90.7461,6.38424514 C114.601531,18.6747325 123.979082,47.9751779 111.69277,71.83276 L111.69277,71.83276 Z" id="Path" fill="#9DADC7" fill-rule="nonzero"></path>
                    <path d="M38.60179,117.82165 C37.0294904,114.75738 33.6820461,113.03275 30.2742,113.53121 L34.56463,105.20361 L42.89223,109.49405 L38.60179,117.82165 Z" id="Path" fill="#9DADC7" fill-rule="nonzero"></path>
                    <path d="M32.53215,109.20228 C34.4723804,111.883685 37.5824947,113.469934 40.89224,113.466177" id="Path" stroke="#2F2E41" stroke-width="2"></path>
                    <ellipse id="Oval" fill="#FFFFFF" fill-rule="nonzero" opacity="0.4" transform="translate(95.835030, 40.610706) rotate(-62.742160) translate(-95.835030, -40.610706) " cx="95.8350302" cy="40.6107062" rx="12.29531" ry="10.2461"></ellipse>
                    <path d="M36.35992,111.81139 L0.10504,203.04377" id="Path" stroke="#2F2E41" stroke-width="2"></path>
                </g>
                <path d="M657.34615,218.18523 C630.43446,245.33503 565.47395,266.85007 538.32415,239.93838 C511.17435,213.02669 532.11632,147.87917 559.02802,120.72938 C585.942539,93.5956518 629.754913,93.4103194 656.898024,120.315376 C684.041134,147.220434 684.241742,191.032741 657.34615,218.18523 Z" id="Path" fill="#E8CDBE" fill-rule="nonzero"></path>
                <path d="M538.36568,249.37327 C537.54142,244.537404 533.732169,240.761561 528.88923,239.97993 L538.28257,230.50349 L547.75902,239.89682 L538.36568,249.37327 Z" id="Path" fill="#E8CDBE" fill-rule="nonzero"></path>
                <path d="M533.80968,235.06562 C535.297674,239.538867 538.843763,243.025124 543.34168,244.43679" id="Path" stroke="#2F2E41" stroke-width="2"></path>
                <path d="M536.51563,242.22772 L447.27994,332.25297" id="Path" stroke="#2F2E41" stroke-width="2"></path>
                <ellipse id="Oval" fill="#FFFFFF" fill-rule="nonzero" opacity="0.4" transform="translate(649.168551, 168.981901) rotate(-45.252360) translate(-649.168551, -168.981901) " cx="649.168551" cy="168.981901" rx="17.51279" ry="14.594"></ellipse>
                <path d="M573.23225,130.22987 C564.36437,167.41471 520.06692,219.57313 482.88209,210.70525 C445.69726,201.83737 429.70617,135.30125 438.57409,98.11646 C447.462612,60.9551302 484.781886,38.0253808 521.949148,46.8890658 C559.11641,55.7527508 582.071094,93.0566931 573.23225,130.22987 Z" id="Path" fill="#9DADC7" fill-rule="nonzero"></path>
                <path d="M487.824,218.74243 C484.605171,215.040522 479.387956,213.796315 474.8449,215.64716 L477.94017,202.66806 L490.91927,205.76332 L487.824,218.74243 Z" id="Path" fill="#9DADC7" fill-rule="nonzero"></path>
                <path d="M476.49215,208.89087 C480.089325,211.93789 484.931158,213.071608 489.50715,211.93834" id="Path" stroke="#2F2E41" stroke-width="2"></path>
                <ellipse id="Oval" fill="#FFFFFF" fill-rule="nonzero" opacity="0.4" transform="translate(540.660264, 92.455550) rotate(-76.586590) translate(-540.660264, -92.455550) " cx="540.660264" cy="92.4555505" rx="17.51279" ry="14.594"></ellipse>
                <path d="M482.67563,213.585 L453.27091,336.8851" id="Path" stroke="#2F2E41" stroke-width="2"></path>
                <g id="Group" opacity="0.8" transform="translate(68.000000, 372.000000)">
                    <path d="M93.06422,84.2782 C73.73404,103.0882 27.63439,117.43897 8.82436,98.10879 C-9.98567,78.77861 5.61688,33.08746 24.94705,14.27742 C37.451485,2.10945954 55.497589,-2.46316295 72.2875694,2.28201517 C89.0775497,7.0271933 102.060609,20.3692666 106.346154,37.2824052 C110.6317,54.1955438 105.568655,72.1102395 93.06422,84.2782 L93.06422,84.2782 Z" id="Path" fill="#9DADC7" fill-rule="nonzero"></path>
                    <path d="M8.73358,104.76507 C8.21366488,101.343164 5.57452555,98.6310468 2.16807,98.01801 L8.91513,91.4525 L15.48064,98.19956 L8.73358,104.76507 Z" id="Path" fill="#9DADC7" fill-rule="nonzero"></path>
                    <path d="M5.70171,94.61387 C6.69446026,97.7884078 9.15162275,100.292887 12.30665,101.346" id="Path" stroke="#2F2E41" stroke-width="2"></path>
                    <ellipse id="Oval" fill="#FFFFFF" fill-rule="nonzero" opacity="0.4" transform="translate(87.921714, 49.464054) rotate(-44.218670) translate(-87.921714, -49.464054) " cx="87.9217139" cy="49.4640541" rx="12.35625" ry="10.29687"></ellipse>
                </g>
                <path d="M370.85861,59.88584 L384.43882,59.88584 C402.991335,59.88584 418.03112,74.925625 418.03112,93.47814 L418.03112,140.65065 L337.2663,140.65065 L337.2663,93.47815 C337.266297,84.5689146 340.805476,76.0245776 347.105257,69.7247969 C353.405038,63.4250161 361.949375,59.8858373 370.85861,59.88584 L370.85861,59.88584 Z" id="Path" fill="#2F2E41" fill-rule="nonzero"></path>
                <path d="M332.31142,270.18301 L322.1187,291.61277 C322.1187,291.61277 313.81092,320.40077 323.22449,323.47817 C332.63806,326.55557 334.47558,293.93617 334.47558,293.93617 L342.27233,272.33607 L332.31142,270.18301 Z" id="Path" fill="#FFB9B9" fill-rule="nonzero"></path>
                <path d="M332.31142,270.18301 L322.1187,291.61277 C322.1187,291.61277 313.81092,320.40077 323.22449,323.47817 C332.63806,326.55557 334.47558,293.93617 334.47558,293.93617 L342.27233,272.33607 L332.31142,270.18301 Z" id="Path" fill="#000000" fill-rule="nonzero" opacity="0.1"></path>
                <polygon id="Path" fill="#575A89" fill-rule="nonzero" points="334.242 236.643 321.351 281.76 341.762 292.502 341.762 238.791"></polygon>
                <path d="M369.15415,116.86738 C369.15415,116.86738 368.07993,134.05489 365.93149,134.05489 C363.78305,134.05489 359.48618,154.46505 359.48618,154.46505 L377.7479,166.28146 L400.3065,145.8713 L393.86115,129.75801 C393.86115,129.75801 390.63849,123.3127 391.71271,116.86738 C392.78693,110.42206 369.15415,116.86738 369.15415,116.86738 Z" id="Path" fill="#FFB9B9" fill-rule="nonzero"></path>
                <path d="M369.15415,116.86738 C369.15415,116.86738 368.07993,134.05489 365.93149,134.05489 C363.78305,134.05489 359.48618,154.46505 359.48618,154.46505 L377.7479,166.28146 L400.3065,145.8713 L393.86115,129.75801 C393.86115,129.75801 390.63849,123.3127 391.71271,116.86738 C392.78693,110.42206 369.15415,116.86738 369.15415,116.86738 Z" id="Path" fill="#000000" fill-rule="nonzero" opacity="0.1"></path>
                <path d="M436.82995,287.66822 L438.97839,311.30104 C438.97839,311.30104 446.49793,340.30496 456.1659,338.15652 C465.83387,336.00808 450.7948,307.00416 450.7948,307.00416 L446.49793,284.44556 L436.82995,287.66822 Z" id="Path" fill="#FFB9B9" fill-rule="nonzero"></path>
                <path d="M390.63853,520.77377 C390.63853,520.77377 397.08385,560.51987 392.78697,568.03941 C388.49009,575.55895 397.08385,576.63316 397.08385,576.63316 L422.86515,570.18787 L422.86515,558.37143 C422.86515,558.37143 414.27139,519.69955 414.27139,517.55111 C414.27139,515.40267 390.63853,520.77377 390.63853,520.77377 Z" id="Path" fill="#FFB9B9" fill-rule="nonzero"></path>
                <path d="M338.0018,342.4534 C338.0018,342.4534 345.52133,419.79717 357.33774,444.50421 C369.15415,469.21125 379.89634,536.88705 385.26744,537.96127 C390.63854,539.03549 431.45886,531.51596 436.82995,527.21908 C442.20104,522.9222 400.3065,418.72295 400.3065,417.64873 C400.3065,416.57451 390.6385,320.96901 390.6385,320.96901 L377.74787,299.48463 L338.0018,342.4534 Z" id="Path" fill="#2F2E41" fill-rule="nonzero"></path>
                <path d="M338.0018,342.4534 C338.0018,342.4534 345.52133,419.79717 357.33774,444.50421 C369.15415,469.21125 379.89634,536.88705 385.26744,537.96127 C390.63854,539.03549 431.45886,531.51596 436.82995,527.21908 C442.20104,522.9222 400.3065,418.72295 400.3065,417.64873 C400.3065,416.57451 390.6385,320.96901 390.6385,320.96901 L377.74787,299.48463 L338.0018,342.4534 Z" id="Path" fill="#000000" fill-rule="nonzero" opacity="0.1"></path>
                <path d="M400.3065,565.89097 C400.3065,565.89097 389.56431,560.51987 387.41587,563.74253 L378.82215,576.63316 C378.82215,576.63316 342.2987,593.82066 355.18933,595.9691 C368.07996,598.11754 392.787,598.11754 396.00966,595.9691 C399.23232,593.82066 434.68155,574.48472 433.60733,573.4105 C432.53311,572.33628 423.93933,549.77768 422.86514,551.92612 C421.79095,554.07456 406.75182,570.18787 400.3065,565.89097 Z" id="Path" fill="#2F2E41" fill-rule="nonzero"></path>
                <path d="M219.8377,474.58234 C219.8377,474.58234 195.1307,491.76985 183.31425,488.54719 C171.4978,485.32453 183.31425,512.18001 183.31425,512.18001 L204.79863,523.99642 L211.24394,518.62533 C211.24394,518.62533 233.80254,488.54719 243.47052,487.47297 C253.1385,486.39875 219.8377,474.58234 219.8377,474.58234 Z" id="Path" fill="#FFB9B9" fill-rule="nonzero"></path>
                <path d="M331.55648,278.00025 L335.85336,300.55885 L255.28693,423.01987 C255.28693,423.01987 206.94707,471.35973 211.24393,476.73087 C215.54079,482.10201 242.39629,513.25432 248.8416,508.95745 C255.28691,504.66058 404.60338,343.52761 403.52915,322.04323 C402.45492,300.55885 367.0057,259.73852 367.0057,259.73852 L331.55647,275.85181 L331.55648,278.00025 Z" id="Path" fill="#2F2E41" fill-rule="nonzero"></path>
                <path d="M188.68534,496.06673 C188.68534,496.06673 198.35334,485.32454 192.98222,484.25032 C186.94107,483.185543 180.843809,482.468218 174.72049,482.10188 C172.57205,482.10188 143.56814,467.06281 141.4197,472.43388 C139.27126,477.80495 154.31033,505.73467 162.90408,508.95733 C171.49783,512.17999 202.65015,534.73861 202.65015,534.73861 C202.65015,534.73861 218.76344,520.77377 216.615,517.55111 C214.46656,514.32845 184.38846,507.88314 188.68534,496.06673 Z" id="Path" fill="#2F2E41" fill-rule="nonzero"></path>
                <circle id="Oval" fill="#FFB9B9" fill-rule="nonzero" cx="377.7479" cy="101.82831" r="25.78126"></circle>
                <path d="M383.119,140.5002 C383.119,140.5002 364.85727,141.57442 359.48618,138.35177 C354.11509,135.12912 342.29867,182.39477 342.29867,182.39477 L334.77915,244.69946 C334.77915,244.69946 333.70493,252.21899 334.77915,256.51587 C335.85337,260.81275 324.03696,254.36743 328.33383,266.18387 C332.6307,278.00031 325.11118,283.37137 332.63071,284.44559 C340.15024,285.51981 379.89635,269.40653 379.89635,269.40653 L398.15808,173.80103 L403.52917,135.12914 L383.119,140.5002 Z" id="Path" fill="#D0CDE1" fill-rule="nonzero"></path>
                <path d="M367.23357,131.77353 C367.23357,131.77353 357.33774,129.75801 354.11508,131.90645 C350.89242,134.05489 339.07602,150.16818 339.07602,154.46505 C339.07602,158.76192 334.77914,206.02757 334.77914,210.32445 C334.77914,214.62133 331.55648,237.17992 331.55648,239.32836 C331.55648,241.4768 334.31187,250.71059 334.31187,250.71059 L341.22445,238.25414 C341.22445,238.25414 339.07602,222.14086 346.59555,196.3596 C354.11508,170.57834 367.23357,131.77353 367.23357,131.77353 Z" id="Path" fill="#575A89" fill-rule="nonzero"></path>
                <path d="M377.7479,148.01974 C377.7479,148.01974 392.09848,125.46114 392.97983,127.60958 C393.86118,129.75802 409.97448,132.98067 409.97448,132.98067 C409.97448,132.98067 438.97839,153.39083 436.82995,161.98459 C434.68151,170.57835 419.64245,235.03149 419.64245,235.03149 C419.64245,235.03149 405.6776,268.33228 416.41979,291.9651 C427.16198,315.59792 414.27135,324.19167 414.27135,324.19167 C414.27135,324.19167 405.6776,328.48855 407.82604,332.78542 C409.97448,337.08229 383.11904,353.19559 379.89634,341.37918 C376.67364,329.56277 336.92758,258.66431 345.52134,232.88305 C354.1151,207.10179 377.7479,148.01974 377.7479,148.01974 Z" id="Path" fill="#575A89" fill-rule="nonzero"></path>
                <path d="M431.45886,158.76193 C431.45886,158.76193 443.27527,181.32053 441.12686,184.54319 C438.97845,187.76585 448.64639,207.10179 448.64639,207.10179 C447.977528,208.829683 447.977528,210.744987 448.64639,212.47288 C449.72061,215.69554 456.16593,229.66039 456.16593,235.03149 C456.16593,240.40259 455.09171,257.59009 456.16593,265.10962 C457.24015,272.62915 471.20499,290.89088 459.38858,291.9651 C447.57217,293.03932 428.23623,302.70729 429.31045,291.9651 C430.38467,281.22291 433.60733,255.44165 429.31045,251.14477 C425.01357,246.84789 421.79092,246.8479 423.93935,241.47677 C426.08778,236.10564 414.27135,222.14083 414.27135,222.14083 L431.45886,158.76193 Z" id="Path" fill="#575A89" fill-rule="nonzero"></path>
                <polygon id="Path" fill="#2F2E41" fill-rule="nonzero" points="399.29 95.477 358.514 95.477 349.281 74.259 406.215 74.259"></polygon>
                <ellipse id="Oval" fill="#FFB9B9" fill-rule="nonzero" transform="translate(351.639705, 105.743787) rotate(-16.160120) translate(-351.639705, -105.743787) " cx="351.639705" cy="105.743787" rx="2.05334" ry="5.47558"></ellipse>
                <ellipse id="Oval" fill="#FFB9B9" fill-rule="nonzero" transform="translate(402.973318, 105.743868) rotate(-73.839880) translate(-402.973318, -105.743868) " cx="402.973318" cy="105.743868" rx="5.47558" ry="2.05334"></ellipse>
                <path d="M645.91078,514.97875 C645.91078,539.93115 631.07839,548.6432 612.78078,548.6432 C612.35553,548.6432 611.93027,548.63745 611.5107,548.6317 C610.6602,548.60872 609.8212,548.5685 608.9937,548.51104 C592.47755,547.34443 579.65078,538.18412 579.65078,514.97875 C579.65078,490.96887 610.32691,460.672 612.64287,458.41929 C612.644405,458.419323 612.645887,458.418728 612.646972,458.417642 C612.648058,458.416557 612.648653,458.415075 612.64862,458.41354 C612.73483,458.33307 612.78078,458.28713 612.78078,458.28713 C612.78078,458.28713 645.91078,490.02639 645.91078,514.97875 Z" id="Path" fill="#F2F2F2" fill-rule="nonzero"></path>
                <path d="M611.57397,544.82735 L623.68808,527.89746 L611.54521,546.68358 L611.51069,548.6317 C610.66019,548.60872 609.82119,548.5685 608.99369,548.51104 L610.29821,523.55292 L610.2867,523.35752 L610.3097,523.32304 L610.43611,520.96114 L598.25872,502.12904 L610.47056,519.19113 L610.49932,519.69684 L611.48774,500.83602 L601.06315,481.37179 L611.61424,497.52014 L612.64286,458.41929 L612.64861,458.28713 L612.64861,458.41354 L612.47625,489.2506 L622.85483,477.02726 L612.43023,491.90559 L612.16015,508.79525 L621.84915,492.58945 L612.11988,511.27785 L611.96471,520.66805 L626.03271,498.11205 L611.91299,523.94368 L611.57397,544.82735 Z" id="Path" fill="#3F3D56" fill-rule="nonzero"></path>
            </g>
        </g>
    </g>
</svg>