<?xml version="1.0" encoding="UTF-8"?>
<svg width="983px" height="803px" viewBox="0 0 983 803" version="1.1" xmlns="http://www.w3.org/2000/svg" xmlns:xlink="http://www.w3.org/1999/xlink">
    <!-- Generator: Sketch 54.1 (76490) - https://sketchapp.com -->
    <title>undraw_exams_g4ow</title>
    <desc>Created with Sketch.</desc>
    <g id="Page-1" stroke="none" stroke-width="1" fill="none" fill-rule="evenodd">
        <g id="Icon-Set" transform="translate(-1913.000000, -1634.000000)" fill-rule="nonzero">
            <g id="undraw_exams_g4ow" transform="translate(1913.000000, 1634.000000)">
                <path d="M958.99,465.51 C958.99,466.12 958.99,466.73 958.99,467.33 C958.883333,477.85 958.26,488.343333 957.12,498.81 C957.12543,498.873217 957.12543,498.936783 957.12,499 C957.03,499.87 956.93,500.73 956.83,501.6 C956.66,503.07 956.48,504.53 956.28,506 C953.948632,523.893187 950.091243,541.554208 944.75,558.79 C937.594352,582.080381 927.478337,604.35578 914.65,625.07 C910.703333,631.403333 906.5,637.533333 902.04,643.46 C899.66,646.6 897.23,649.67 894.72,652.69 C892.96,654.803333 891.166667,656.883333 889.34,658.93 L888.2,660.19 C878.58878,670.742919 868.228539,680.588489 857.2,689.65 C839.2,704.57 819.82,717.55 800.13,729.59 C799.01,730.28 797.88,730.96 796.75,731.59 C796.671256,731.647279 796.587596,731.697475 796.5,731.74 C769.74,747.92 741.99,762.52 713.4,774.21 C682.1,787.04 649.78,796.37 616.62,800.45 C570.4,806.13 523.62,801.51 477.68,793.57 C439.47277,787.005149 401.72799,777.986484 364.68,766.57 L358.58,764.66 C355.42,763.653333 352.263333,762.626667 349.11,761.58 C330.063333,755.28 311.23,748.28 292.61,740.58 C245.844974,721.318785 201.169767,697.33095 159.28,668.99 C153.946667,665.403333 148.69,661.736667 143.51,657.99 C136.27,652.776667 129.116667,647.41 122.05,641.89 L117.69,638.51 C99.1964993,624.028837 81.86981,608.116503 65.87,590.92 C44.35,567.5 25.96,541.08 13.87,510.92 C11.9633333,506.18 10.2166667,501.35 8.63,496.43 L8.48,495.94 C7.68,493.44 6.94,490.94 6.26,488.34 C5.26,484.62 4.38333333,480.853333 3.63,477.04 C3.47,476.31 3.33,475.58 3.2,474.84 C0.809886261,462.006739 -0.245736331,448.960585 0.05,435.91 C0.300105235,424.475323 1.63949479,413.090512 4.05,401.91 C6.51721613,390.319905 10.3192425,379.054765 15.38,368.34 C19.9534069,358.705188 25.7805622,349.717314 32.71,341.61 C37.5792598,335.941801 43.0553115,330.824559 49.04,326.35 C59.89,318.27 71.92,312.64 84.39,308.19 C90.25,306.09 96.19,304.25 102.16,302.54 C106.39,301.32 110.64,300.16 114.87,299.02 L127.35,295.65 C135.35,293.47 143.35,291.23 151.23,288.81 C172.71,282.25 193.76,274.31 213.23,262.47 C216.31,260.6 219.45,258.55 222.59,256.35 C226.59,253.57 230.53,250.55 234.43,247.29 C238.37,243.99 242.23,240.46 245.91,236.72 C246.48,236.14 247.04,235.56 247.6,234.97 C250.6,231.81 253.51,228.5 256.21,225.06 C257.53,223.38 258.81,221.67 260.03,219.93 C261.72,217.52 263.32,215.07 264.8,212.55 C272.22,199.95 276.8,186.05 276.26,171.4 C276.181051,168.986235 275.964029,166.578966 275.61,164.19 C274.31,155.36 273.06,146.74 272.14,138.31 C268.28,103.44 269.91,71.82 296.08,42.11 C328.62,5.18 379.69,-2.35 426.18,0.6 C560.59,9.1 682.95,85.84 790.48,177.2 C799.78,185.093333 808.966667,193.093333 818.04,201.2 C820.326667,203.24 822.616667,205.293333 824.91,207.36 C841.91,222.67 858.65,238.55 874.24,255.56 C875.5,256.94 876.76,258.32 878,259.71 C878.76,260.57 879.53,261.42 880.28,262.29 C885.14,267.79 889.856667,273.423333 894.43,279.19 C906.681064,294.499182 917.499856,310.901435 926.75,328.19 C940.913632,355.321975 950.502471,384.605438 955.13,414.86 C956.869893,425.846823 958.014895,436.919628 958.56,448.03 C958.73,451.3 958.84,454.58 958.9,457.85 C958.9,458.9 958.9,459.94 958.9,460.99 C959,462.51 959,463.99 958.99,465.51 Z" id="Path" fill="#9EADC8" opacity="0.1"></path>
                <polygon id="Path" fill="#3F3D56" points="393.98 448.74 377.98 733.53 393.98 733.74 406.98 444.74"></polygon>
                <rect id="Rectangle" fill="#E8CCBD" x="136.98" y="593.03" width="198" height="43"></rect>
                <path d="M347.98,631.02 L347.98,658.02 L143.45,658.02 C136.21,652.806667 129.056667,647.44 121.99,641.92 L121.99,631.02 L347.98,631.02 Z" id="Path" fill="#3F3D56"></path>
                <path d="M388.82,569.57 C388.26,572.16 387.53,574.72 386.76,577.27 C384.49,584.64 381.76,591.91 381.23,599.57 C380.52,609.69 383.23,621.46 376.23,628.81 C374.43,630.71 372.08,632.13 370.47,634.16 C370.222037,634.478343 369.994898,634.812372 369.79,635.16 C368.35,637.54 368.18,640.44 368.16,643.16 C368.176837,648.96116 368.554231,654.755664 369.29,660.51 C371.66,680.31 376.34,700.15 370.19,718.84 C369.075653,722.081552 367.776867,725.256734 366.3,728.35 C363.3,734.95 360.03,741.46 359.05,748.61 C358.33,753.91 358.55,759.37 358.51,764.76 C355.35,763.753333 352.193333,762.726667 349.04,761.68 C329.993333,755.38 311.16,748.38 292.54,740.68 C292.59,740.41 292.64,740.13 292.68,739.86 C294.11,730.96 292.15,721.86 289.77,713.18 C284.77,694.79 277.69,676.58 273.5,658.06 C271.812646,650.826498 270.705793,643.469769 270.19,636.06 C270.07,634.4 270,632.73 269.99,631.06 C269.94,628.88 269.99,626.7 270.08,624.5 C270.29,620.11 270.48,614.9 266.97,612.23 C265.04,610.78 262.49,610.53 260.24,609.65 C255.9,607.96 252.93,604.04 249.49,600.9 C246.158825,597.668431 241.449915,596.284558 236.9,597.2 C214.42,602.35 197.9,621.42 176.98,631.06 C176.17,631.44 175.36,631.8 174.54,632.14 C171.833898,633.130955 169.25833,634.447282 166.87,636.06 C165.191738,637.224936 163.974589,638.940975 163.43,640.91 C162.9,643.03 163.36,645.25 163.62,647.43 C164.040858,650.974544 163.888918,654.563706 163.17,658.06 C162.898851,659.414752 162.541457,660.750805 162.1,662.06 C161.3,664.43 160.23,666.75 159.21,669.06 C153.876667,665.473333 148.62,661.806667 143.44,658.06 C136.2,652.846667 129.046667,647.48 121.98,641.96 L117.69,638.51 C99.1964993,624.028837 81.86981,608.116503 65.87,590.92 C68,584.92 71.08,579.34 72.56,573.19 C73.4,569.66 73.71,565.99 74.87,562.56 C76.2077115,559.003981 78.0681664,555.667296 80.39,552.66 C88.8934579,540.801294 99.2768275,530.411169 111.13,521.9 C123.52,513.02 137.83,505.9 148.98,495.82 C153.504876,491.858528 157.405527,487.236407 160.55,482.11 C160.74,481.8 160.92,481.47 161.08,481.11 C161.950339,479.300007 162.553294,477.373246 162.87,475.39 C163.67,470.91 163.55,465.99 163.95,461.69 C177.532888,464.041223 191.380139,464.458694 205.08,462.93 C221.03,461.14 236.63,456.71 252.58,454.99 C253.78,454.85 254.99,454.74 256.2,454.64 C261.31,454.23 266.43,454.14 271.56,454.2 C275.85,454.2 280.14,454.39 284.43,454.53 L331.66,456.13 C336.89,456.31 342.23,456.51 347.1,458.42 C352.88,460.69 357.51,465.21 361.22,470.18 C361.69,470.82 362.16,471.46 362.6,472.12 C365.652819,476.573343 368.100874,481.412286 369.88,486.51 C370.07,487.03 370.25,487.51 370.42,488.08 C370.87,489.47 371.26,490.87 371.61,492.29 C371.88,493.4 372.12,494.51 372.34,495.63 C373.44,501.17 374.09,506.83 375.83,512.18 C375.95,512.57 376.08,512.96 376.22,513.34 C378.31,519.2 381.78,524.45 384.4,530.08 C386.289021,534.155526 387.730772,538.423782 388.7,542.81 C390.658659,551.61817 390.699585,560.744618 388.82,569.57 Z" id="Path" fill="#35323E"></path>
                <path d="M245.26,211.7 C241.04,208.34 234.92,210.8 229.98,212.97 C225.838163,214.799325 221.574634,216.339676 217.22,217.58 C216.328832,217.922984 215.362544,218.023064 214.42,217.87 C212.42,217.39 211.58,215.02 210.09,213.58 C207.5,211.09 203.26,211.68 199.92,213.03 C196.58,214.38 193.28,216.33 189.7,216.03 C185.88,215.73 182.56,212.91 178.7,212.82 C171.9,212.66 166.19,221.04 159.76,218.82 C155.84,217.47 152.76,212.37 148.9,213.82 C145.9,214.96 145.63,219.11 143.82,221.82 C141.69,224.98 137.54,225.87 133.99,227.27 C122.8,231.69 115.39,244.16 116.85,256.1 C117.66,262.69 120.85,268.73 122.96,275.02 C129.22,293.31 127.07,313.94 134.96,331.58 C135.96,330.64 136.52,330.29 137.49,329.36 C134.995296,334.533994 134.514102,340.450897 136.14,345.96 C136.97,348.73 138.32,351.31 139.34,354.02 C140.399577,357.059503 141.254816,360.166427 141.9,363.32 L150.6,401.7 C154,416.7 157.41,431.7 158,447.06 C158.367343,457.047552 157.60247,467.044581 155.72,476.86 C171.48,474.25 185.9,467.26 201.87,467.35 C207.73,467.35 213.54,468.35 219.35,469.15 C236.289203,471.520376 253.375857,472.679983 270.48,472.62 C273.140199,472.771412 275.804183,472.397638 278.32,471.52 C280.52,470.58 282.32,468.91 284.4,467.7 C288.47,465.3 293.4,464.7 298.09,464.7 C319.48,464.31 340.09,472.14 361.34,474.9 C369.73,457.29 370.23,436.19 363.79,417.78 C361.88,412.31 359.31,406.98 358.55,401.23 C358.244846,397.695331 358.164685,394.144839 358.31,390.6 C358.276675,381.524805 356.641587,372.526741 353.48,364.02 C352.24,360.69 350.75,357.3 350.88,353.75 C351.01,350.2 352.76,346.89 354.48,343.75 C357.97,337.35 361.48,330.89 366.41,325.49 C371.46,319.91 377.78,315.66 384.03,311.49 L399.46,301.13 C397.35,287.8 394.63,273.76 388.98,261.5 C383.33,249.24 374.88,237.97 363.45,230.8 C359.596356,228.481739 355.563503,226.475345 351.39,224.8 C345.55,222.34 339.47,220.17 333.14,219.8 C325.94,219.39 318.85,221.32 311.74,222.52 C289.36,226.29 263.02,225.83 245.26,211.7 Z" id="Path" fill="#9EADC8"></path>
                <path d="M413.98,443.02 L406.64,452.29 L392.8,469.76 L376.8,489.95 L372.33,495.59 L363.66,495.59 L148.97,495.84 L14.52,495.99 L8.52,495.99 C7.72,493.49 6.98,490.99 6.3,488.39 C5.3,484.67 4.42333333,480.903333 3.67,477.09 C3.51,476.36 3.37,475.63 3.24,474.89 L52.02,443 L70.36,442.9 L70.36,442.9 L126.46,442.58 L126.46,442.58 L157.79,442.4 L163.51,442.4 L167.1,442.4 L167.1,442.4 L187.98,442.29 L187.98,442.29 L347.12,441.38 L347.12,441.38 L355.26,441.33 L355.26,441.33 L358.79,441.33 L368.14,441.28 L402.93,441.08 L409.61,438.54 L410.1,439.06 L413.98,443.02 Z" id="Path" fill="#3F3D56"></path>
                <path d="M410.98,438.02 L410.15,439.02 L404.69,445.45 L393.45,458.72 L369.88,486.51 L161.08,481.18 L3.63,477.18 C3.47,476.45 3.33,475.72 3.2,474.98 C0.809886261,462.146739 -0.245736331,449.100585 0.05,436.05 L17.51,427.11 L21.51,425.05 L52.64,409.05 L79.96,395.05 L151.22,404.31 L167,406.36 L174.14,407.28 L184.59,408.64 L185.47,408.76 L349.34,430.01 L367.45,432.36 L378.08,433.74 L410.84,438 L410.98,438.02 Z" id="Path" fill="#504F60"></path>
                <path d="M376.98,486.02 L376.81,489.95 L375.81,512.14 L370.43,634.14 L369.29,660.51 L366.29,728.35 L364.6,766.67 L358.5,764.76 C355.34,763.753333 352.183333,762.726667 349.03,761.68 L363.66,495.68 L363.97,490.1 L370.41,488.1 L376.98,486.02 Z" id="Path" fill="#3F3D56"></path>
                <path d="M14.98,485.73 L14.53,496 L13.87,511 C11.9633333,506.26 10.2166667,501.43 8.63,496.51 L8.48,496.02 C7.68,493.52 6.94,491.02 6.26,488.42 L14.98,485.73 Z" id="Path" fill="#3F3D56"></path>
                <ellipse id="Oval" fill="#A1616A" cx="276.48" cy="272.53" rx="46" ry="62"></ellipse>
                <ellipse id="Oval" fill="#000000" opacity="0.1" cx="276.48" cy="272.53" rx="46" ry="62"></ellipse>
                <circle id="Oval" fill="#A1616A" cx="282.98" cy="235.03" r="64"></circle>
                <path d="M284.25,136.39 C280.342646,136.701547 276.462683,137.293066 272.64,138.16 C262.52,140.62 253.77,146.08 245.25,151.44 C241.43,153.85 237.5,156.36 235.13,159.9 C230.87,166.25 232.52,174.33 230.13,181.38 C228.89,185 226.61,188.25 224.68,191.62 C219.37,200.86 216.59,211.01 213.86,221.06 C213.3,223.14 213.14,225.96 215.41,226.76 C216.717133,227.031491 218.076853,226.877296 219.29,226.32 C226.46,223.95 235.57,223.27 240.89,228.08 C246.21,232.89 245.76,241.42 252.09,245.08 C259.34,249.31 270.66,244.2 277.24,249.19 C280.06,251.33 281.08,254.76 283.39,257.34 C288.77,263.34 299.12,263.05 307.73,261.84 C312.67,261.14 318.73,260.67 321.73,264.14 C323.17,265.78 323.58,268.03 325.25,269.51 C328.25,272.19 333.74,270.83 336.67,268.08 C339.6,265.33 341,261.61 343.44,258.52 C348.19,252.52 356.54,249.25 361.44,243.32 C365.54,238.32 366.78,232.06 367.9,226.02 L372.07,203.63 C373.76,194.55 375.3,184.63 370.19,176.63 C368.37,173.75 365.76,171.27 364.19,168.29 C363.14,166.29 362.55,164.18 361.33,162.29 C359.883291,160.321092 358.154784,158.575738 356.2,157.11 L346.33,148.94 C342.955373,145.986204 339.346893,143.310778 335.54,140.94 C321.45,132.73 300.35,134.89 284.25,136.39 Z" id="Path" fill="#464353"></path>
                <path d="M73.45,301.25 C71.08,303.77 68.89,306.49 66.35,308.85 C64.1156073,310.83709 61.7791006,312.706295 59.35,314.45 C55.43,317.383333 51.5966667,320.42 47.85,323.56 C43.9411772,326.650479 40.4041879,330.184112 37.31,334.09 C31.97,341.26 29.44,350.18 24.44,357.59 C20.02,364.16 13.79,369.35 9.3,375.87 C7.33022856,378.611279 5.8671475,381.683072 4.98,384.94 C4.31780442,388.092148 4.0191879,391.309825 4.09,394.53 C4,399.81 3.92,405.15 5,410.32 C6.08,415.49 8.45,420.57 12.51,423.96 C16.28,427.11 21.15,428.56 25.92,429.76 C28.38,430.37 31.04,430.94 33.38,429.97 C35.0922804,429.105126 36.5785337,427.851741 37.72,426.31 L49.89,412.31 C58.03,402.91 66.49,393.31 77.66,387.81 C81.16,386.1 84.85,384.81 88.36,383.15 C103.24,375.98 113.76,361.3 117.84,345.3 C118.84,341.39 119.48,337.4 120.13,333.41 L121.89,322.47 C122.025148,321.921536 122.025148,321.348464 121.89,320.8 C121.61439,320.183278 121.170823,319.656542 120.61,319.28 C112.133098,312.434146 104.196274,304.945315 96.87,296.88 C95.13,294.96 93.5,292.33 91.49,290.72 C88.97,288.72 89.16,288.87 86.13,290.72 C81.4689116,293.671236 77.2072089,297.210331 73.45,301.25 Z" id="Path" fill="#A1616A"></path>
                <path d="M156.7,374.05 C156.424409,373.417434 155.824446,372.986665 155.136973,372.927758 C154.449499,372.86885 153.784998,373.191271 153.405809,373.767731 C153.02662,374.34419 152.993682,375.082047 153.32,375.69 L152.32,376.18 L182.14,437.3 L187.53,434.67 L157.71,373.51 L156.7,374.05 Z" id="Path" fill="#3F3D56"></path>
                <path d="M73.45,301.25 C71.08,303.77 68.89,306.49 66.35,308.85 C64.1156073,310.83709 61.7791006,312.706295 59.35,314.45 C55.43,317.383333 51.5966667,320.42 47.85,323.56 C43.9411772,326.650479 40.4041879,330.184112 37.31,334.09 C31.97,341.26 29.44,350.18 24.44,357.59 C20.02,364.16 13.79,369.35 9.3,375.87 C7.33022856,378.611279 5.8671475,381.683072 4.98,384.94 C4.31780442,388.092148 4.0191879,391.309825 4.09,394.53 C4,399.81 3.92,405.15 5,410.32 C6.08,415.49 8.45,420.57 12.51,423.96 C16.28,427.11 21.15,428.56 25.92,429.76 C28.38,430.37 31.04,430.94 33.38,429.97 C35.0922804,429.105126 36.5785337,427.851741 37.72,426.31 L49.89,412.31 C58.03,402.91 66.49,393.31 77.66,387.81 C81.16,386.1 84.85,384.81 88.36,383.15 C103.24,375.98 113.76,361.3 117.84,345.3 C118.84,341.39 119.48,337.4 120.13,333.41 L121.89,322.47 C122.025148,321.921536 122.025148,321.348464 121.89,320.8 C121.61439,320.183278 121.170823,319.656542 120.61,319.28 C112.133098,312.434146 104.196274,304.945315 96.87,296.88 C95.13,294.96 93.5,292.33 91.49,290.72 C88.97,288.72 89.16,288.87 86.13,290.72 C81.4689116,293.671236 77.2072089,297.210331 73.45,301.25 Z" id="Path" fill="#000000" opacity="0.04"></path>
                <path d="M418.19,413.89 C418.09,420.27 417.84,426.84 415.19,432.66 C414.05,435.18 412.28,437.66 409.63,438.49 C408.026282,438.860454 406.366613,438.921546 404.74,438.67 C385.120993,436.945712 365.351754,438.514001 346.25,443.31 C351.35,433.11 348.42,420.88 349.83,409.56 C350.22,406.47 350.93,403.43 351.2,400.33 C352.2,389.33 347.49,378.65 345.33,367.79 C343.454952,358.389253 343.454952,348.710747 345.33,339.31 C345.697827,336.890174 346.529741,334.564212 347.78,332.46 C349.244724,330.412548 351.169713,328.737602 353.4,327.57 C361.5,322.96 371.05,322.43 380.15,323.04 C386.28,323.45 398.57,322.87 403.68,326.64 C409.27,330.77 411.04,344.64 412.55,351.05 C414.810923,360.880933 416.348374,370.864335 417.15,380.92 C418.13,391.88 418.34,402.89 418.19,413.89 Z" id="Path" fill="#A1616A"></path>
                <polygon id="Path" fill="#FFFFFF" points="59.98 436.03 95.98 460.03 257.98 454.03 150.98 436.03"></polygon>
                <path d="M107.45,245.34 C101.54,250.55 96.53,256.69 90.93,262.24 C83.25,269.86 74.52,276.34 65.83,282.79 C72.168487,284.561655 77.1069675,289.538123 78.83,295.89 C79.21,297.36 79.4,298.89 79.83,300.33 C80.83,303.74 83.03,306.68 85.39,309.33 C95.53,320.76 109.72,329.22 115.7,343.33 C115.895152,344.016587 116.318405,344.616196 116.9,345.03 C117.38656,345.245421 117.927021,345.308184 118.45,345.21 C123.86,344.64 128,340.28 131.45,336.04 C138.65,327.04 144.9,317.1 148.45,306.12 C152,295.14 152.57,283 148.7,272.12 C146.77,266.7 143.79,261.72 140.83,256.79 C138.236667,252.476667 135.65,248.17 133.07,243.87 C131.72,241.6 130,236.99 127.35,235.87 C121.63,233.41 111.12,241.67 107.45,245.34 Z" id="Path" fill="#9EADC8"></path>
                <path d="M401.99,309.97 L410.5,329.97 C391.705625,323.403066 370.898955,326.287712 354.6,337.72 C349.75,341.19 345.3,345.55 343.11,351.09 C340.904095,351.509347 338.653117,350.626839 337.32,348.82 C336.039985,347.024604 335.297706,344.901824 335.18,342.7 C334.39,335.02 337.3,327.49 340.18,320.31 C341.52,316.95 342.9,313.52 345.28,310.79 C347.66,308.06 350.82,306.26 353.98,304.56 C364.061294,298.984548 374.619794,294.319398 385.53,290.62 C390.13,289.13 394.95,289.16 397.53,293.46 C400.52,298.59 399.65,304.51 401.99,309.97 Z" id="Path" fill="#9EADC8"></path>
                <path d="M60.19,369.98 C62.32,371.68 64.19,373.69 66.38,375.31 C68.6960507,376.918168 71.1606056,378.301132 73.74,379.44 L83.6,384.18 C86.655464,385.768116 89.852709,387.067102 93.15,388.06 C97.37,389.19 101.8,389.3 106.04,390.35 C111.39,391.67 116.28,394.42 121.55,396.01 C126.82,397.6 132.99,397.86 137.39,394.55 C140.14,392.48 142.22,389.06 145.63,388.55 C147.83,388.26 149.95,389.32 151.91,390.35 L177.57,403.84 C181.03,405.66 184.69,407.68 186.5,411.15 C188.31,414.62 187.09,419.89 183.28,420.79 C181.952119,420.942592 180.61662,421.019383 179.28,421.02 C177.96,421.18 176.52,421.96 176.34,423.29 C176.333295,424.115933 176.551046,424.928179 176.97,425.64 C178.12,428.28 178.46,431.44 177.12,434 C175.78,436.56 172.49,438.15 169.86,437 C170.31,440.87 166.1,443.58 162.35,444.61 C152.89,447.2 142.86,445.61 133.19,443.97 C129.39,443.33 125.53,442.67 122.07,440.97 C120.41,440.16 118.87,439.12 117.19,438.37 C112.58,436.32 107.34,436.59 102.3,436.68 C78.99,437.09 55.88,432.77 32.96,428.47 C28.71,427.67 24.34,426.82 20.71,424.47 C13.71,419.91 11.11,410.55 12.26,402.27 C13.41,393.99 17.61,386.49 21.74,379.21 L27.09,369.78 C27.7893705,368.33541 28.7682472,367.043837 29.97,365.98 C37.84,359.97 53.45,364.56 60.19,369.98 Z" id="Path" fill="#A1616A"></path>
                <path d="M60.19,369.98 C62.32,371.68 64.19,373.69 66.38,375.31 C68.6960507,376.918168 71.1606056,378.301132 73.74,379.44 L83.6,384.18 C86.655464,385.768116 89.852709,387.067102 93.15,388.06 C97.37,389.19 101.8,389.3 106.04,390.35 C111.39,391.67 116.28,394.42 121.55,396.01 C126.82,397.6 132.99,397.86 137.39,394.55 C140.14,392.48 142.22,389.06 145.63,388.55 C147.83,388.26 149.95,389.32 151.91,390.35 L177.57,403.84 C181.03,405.66 184.69,407.68 186.5,411.15 C188.31,414.62 187.09,419.89 183.28,420.79 C181.952119,420.942592 180.61662,421.019383 179.28,421.02 C177.96,421.18 176.52,421.96 176.34,423.29 C176.333295,424.115933 176.551046,424.928179 176.97,425.64 C178.12,428.28 178.46,431.44 177.12,434 C175.78,436.56 172.49,438.15 169.86,437 C170.31,440.87 166.1,443.58 162.35,444.61 C152.89,447.2 142.86,445.61 133.19,443.97 C129.39,443.33 125.53,442.67 122.07,440.97 C120.41,440.16 118.87,439.12 117.19,438.37 C112.58,436.32 107.34,436.59 102.3,436.68 C78.99,437.09 55.88,432.77 32.96,428.47 C28.71,427.67 24.34,426.82 20.71,424.47 C13.71,419.91 11.11,410.55 12.26,402.27 C13.41,393.99 17.61,386.49 21.74,379.21 L27.09,369.78 C27.7893705,368.33541 28.7682472,367.043837 29.97,365.98 C37.84,359.97 53.45,364.56 60.19,369.98 Z" id="Path" fill="#000000" opacity="0.04"></path>
                <path d="M365.45,387.26 C360.24,389.72 354.26,389.96 348.82,391.85 C343.38,393.74 338.76,397.14 333.77,399.91 C320.77,407.17 305.77,409.91 291.04,412.52 C282.11,414.12 273.04,415.72 264.04,415.34 C251.86,414.82 240.16,410.76 228.36,407.7 C216.56,404.64 203.97,402.58 192.28,406.02 C179.899159,409.789745 170.056535,419.234949 165.78,431.45 C163.33,438.64 162.99,446.39 163.46,453.97 C165.92,455.78 169.36,453.27 170.7,450.52 C172.04,447.77 172.77,444.4 175.37,442.8 C179.88,444.33 180.98,450.34 184.7,453.31 C187.02,455.17 190.12,455.66 193.07,456.08 L208.27,458.24 C211.93,458.76 216.18,459.11 218.83,456.53 C220.12,455.28 220.83,453.53 222.01,452.19 C224.43,449.51 228.47,449.05 232.07,449.41 C243.31,450.53 253.85,457.82 265.01,456.09 C268.85,455.5 272.42,453.86 276.08,452.57 C297.77,444.91 321.87,449.57 344.44,445.18 C353.05,443.51 361.34,440.55 369.53,437.43 C373.98,435.74 378.48,433.97 382.28,431.11 C389.598153,425.483055 393.511061,416.490164 392.64,407.3 C391.802843,400.409824 388.365193,394.099715 383.03,389.66 C381.27,388.16 378.96,385.29 376.85,384.35 C372.82,382.58 368.87,385.65 365.45,387.26 Z" id="Path" fill="#A1616A"></path>
                <g id="Group" opacity="0.1" transform="translate(215.000000, 151.000000)" fill="#000000">
                    <path d="M121.23,108.51 C119.56,107.03 119.15,104.78 117.71,103.14 C114.71,99.67 108.65,100.14 103.71,100.84 C95.1,102.05 84.71,102.33 79.37,96.34 C77.06,93.76 76.04,90.34 73.22,88.19 C66.64,83.19 55.32,88.31 48.07,84.08 C41.74,80.39 42.15,71.83 36.87,67.08 C31.59,62.33 22.44,62.95 15.27,65.32 C14.0568533,65.8772955 12.6971327,66.0314906 11.39,65.76 C9.12,64.96 9.28,62.14 9.84,60.06 C12.57,50.01 15.35,39.86 20.66,30.62 C22.59,27.25 24.87,24 26.11,20.38 C28.28,14.04 27.17,6.87 30.02,0.87 C26.96,2.87 24.02,5.05 22.13,7.87 C17.87,14.22 19.52,22.3 17.13,29.35 C15.89,32.97 13.61,36.22 11.68,39.59 C6.37,48.83 3.59,58.98 0.86,69.03 C0.3,71.11 0.14,73.93 2.41,74.73 C3.71713275,75.0014906 5.07685331,74.8472955 6.29,74.29 C13.46,71.92 22.57,71.24 27.89,76.05 C33.21,80.86 32.76,89.39 39.09,93.05 C46.34,97.28 57.66,92.17 64.24,97.16 C67.06,99.3 68.08,102.73 70.39,105.31 C75.77,111.31 86.12,111.02 94.73,109.81 C99.67,109.11 105.73,108.64 108.73,112.11 C110.17,113.75 110.58,116 112.25,117.48 C115.25,120.16 120.74,118.8 123.67,116.05 C125.548688,114.093617 127.156366,111.893991 128.45,109.51 C125.85,110.3 123.08,110.18 121.23,108.51 Z" id="Path"></path>
                    <path d="M139.45,97.51 C138.805918,98.3395833 138.208334,99.204244 137.66,100.1 C141.5,97.36 145.57,94.8 148.44,91.31 C149.184975,90.4068173 149.853925,89.4435296 150.44,88.43 C146.45,91.29 142.29,93.92 139.45,97.51 Z" id="Path"></path>
                </g>
                <polygon id="Path" fill="#3F3D56" points="556.48 446.53 559.48 733.53 573.48 731.53 570.48 446.53"></polygon>
                <polygon id="Path" fill="#3F3D56" points="640.48 498.53 643.48 785.53 657.48 783.53 654.48 498.53"></polygon>
                <path d="M902.01,643.51 L902.01,643.51 L901.95,638 L901.95,634.72 L901.42,584.24 L900.59,505.32 L900.45,498.51 L886.45,498.51 L886.52,505.07 L886.96,547.34 L887.15,565.64 L887.15,565.64 L887.31,580.46 L887.57,606.08 L887.73,621.19 L887.73,621.19 L887.73,622.79 L887.94,642.65 L888.12,660.16 L889.26,658.9 C891.093333,656.853333 892.886667,654.773333 894.64,652.66 L902.01,643.51 Z" id="Path" fill="#3F3D56"></path>
                <polygon id="Path" fill="#9EADC8" points="616.98 556.99 624.98 611.48 692.98 630.09 802.98 630.09 868.98 634.08 900.42 612.56 894.98 575.6 870.98 545.03 624.98 545.03"></polygon>
                <path d="M616.98,556.99 L612.98,590.21 C612.98,590.21 591.98,655.34 760.98,651.35 C929.98,647.36 900.98,634.07 900.98,634.07 L899.98,595.53 C899.98,595.53 905.87,613.77 819.98,611.3 C734.09,608.83 653.98,600.85 653.98,600.85 C653.98,600.85 623.98,606.16 616.98,556.99 Z" id="Path" fill="#3F3D56"></path>
                <path d="M757.78,259.23 C748.14,263.62 740.84,272.13 735.95,281.54 C731.06,290.95 728.31,301.28 725.6,311.54 C722.74,322.36 719.87,333.21 718.39,344.3 C715.75,364.02 717.73,384.75 726.79,402.46 C735.85,420.17 752.59,434.46 772.19,437.87 C779.76,439.2 787.54,438.93 795.19,438.14 C809.017312,436.675749 822.638176,433.67386 835.8,429.19 C849.55,424.54 863.86,417.38 869.98,404.19 C873.53,396.54 873.83,387.82 873.66,379.4 C873.188163,356.45094 869.722207,333.661688 863.35,311.61 C861.5,305.21 859.35,298.76 855.43,293.37 C851.51,287.98 846.15,284.03 840.68,280.37 C817.29,264.62 786.55,246.15 757.78,259.23 Z" id="Path" fill="#FBBEBE"></path>
                <path d="M757.78,259.23 C748.14,263.62 740.84,272.13 735.95,281.54 C731.06,290.95 728.31,301.28 725.6,311.54 C722.74,322.36 719.87,333.21 718.39,344.3 C715.75,364.02 717.73,384.75 726.79,402.46 C735.85,420.17 752.59,434.46 772.19,437.87 C779.76,439.2 787.54,438.93 795.19,438.14 C809.017312,436.675749 822.638176,433.67386 835.8,429.19 C849.55,424.54 863.86,417.38 869.98,404.19 C873.53,396.54 873.83,387.82 873.66,379.4 C873.188163,356.45094 869.722207,333.661688 863.35,311.61 C861.5,305.21 859.35,298.76 855.43,293.37 C851.51,287.98 846.15,284.03 840.68,280.37 C817.29,264.62 786.55,246.15 757.78,259.23 Z" id="Path" fill="#000000" opacity="0.05"></path>
                <path d="M746.95,385.1 C749.740388,388.935332 753.114668,392.309612 756.95,395.1 C766.47,401.68 778.69,402.57 790.25,402.93 C799.53,403.21 810.17,402.68 815.99,395.44 C818.61,392.18 819.79,388.02 820.85,383.97 C827.391443,359.100888 832.038091,333.77164 834.75,308.2 L861.23,308.29 C872.69,357.36 871.75,408.37 870.75,458.76 L869.3,532.24 L852.24,530.43 C811.73,526.14 771.16,521.85 730.43,521.11 C706.565314,520.671162 682.693842,521.458867 658.91,523.47 L696.06,413.01 C700.88,398.65 705.75,384.1 706.88,369.01 C708.51,347.12 702.37,324.01 710.88,303.76 C711.56,302.13 712.42,300.44 713.97,299.59 C715.52,298.74 717.48,298.95 719.26,299.18 C722.62,299.63 732.89,299.18 735.33,301.33 C738.93,304.45 736.55,304.92 735.28,309.95 C733.01,318.95 730.86,327.28 730.89,336.66 C730.92,353.69 736.2,371.67 746.95,385.1 Z" id="Path" fill="#9EADC8"></path>
                <path d="M902.01,643.51 L902.01,643.51 C906.47,637.59 910.673333,631.46 914.62,625.12 C912.62,620.84 910.42,616.66 908.67,612.29 C905.99,605.59 904.45,598.49 902.93,591.44 C902.41,589.04 901.893333,586.64 901.38,584.24 C895.78,558.13 890.52,531.65 889.43,505.18 C889.33,502.98 889.266667,500.78 889.24,498.58 C889.24,498.26 889.24,497.95 889.24,497.58 C889.24,495.17 889.24,492.76 889.24,490.36 C889.36,484.36 889.74,478.31 890.43,472.29 C890.56,471.11 890.71,469.93 890.87,468.75 C890.87,468.49 890.93,468.24 890.97,467.98 L958.97,465.5 L958.97,465.5 L964.69,465.29 C968.62,465.15 972.78,464.93 976.02,462.7 C981.47,458.96 982.11,451.29 982.02,444.7 C981.689042,428.04361 979.800818,411.454689 976.38,395.15 C973.8,382.89 970.12,370.36 961.86,360.94 C955.08,353.2 945.26,347.57 941.73,337.94 C940.42,334.36 940.09,330.43 938.39,327.01 C936.69,323.59 933.88,321.08 931.23,318.44 C921.903605,309.198488 914.16631,298.481152 908.33,286.72 C904.28,278.56 899.89,269.56 894.6,263.92 C894.34,263.63 894.08,263.36 893.81,263.1 C889.31,258.65 884.16,256.7 878.06,259.73 C876.963148,260.280405 875.918817,260.929765 874.94,261.67 L874.94,261.67 C872.766065,263.331047 870.777872,265.222011 869.01,267.31 C862.848111,274.394864 857.442183,282.103255 852.88,290.31 C849.672169,296.087978 846.917243,302.10602 844.64,308.31 C842.842637,313.211423 841.35635,318.221377 840.19,323.31 C839.33,327.08 838.65,330.89 838.11,334.71 C836.11,349.07 836.11,363.71 836.39,378.25 C836.69,391.61 837.28,405 838.49,418.31 C838.79,421.53 839.123333,424.746667 839.49,427.96 C840.223333,434.313333 841.13,440.646667 842.21,446.96 C842.64,449.37 843.08,451.78 843.57,454.18 C843.69,454.82 843.82,455.46 843.95,456.09 L844.01,456.36 C845.330955,461.938556 846.355721,467.583118 847.08,473.27 C847.16,473.983333 847.22,474.693333 847.26,475.4 C847.428355,478.668683 847.40164,481.944497 847.18,485.21 C846.95,489.07 846.59,492.92 846.41,496.78 C846.41,497.46 846.41,498.13 846.34,498.78 C846.29,500.73 846.34,502.68 846.34,504.63 C846.542777,509.295195 847.097689,513.938406 848,518.52 C849.686659,527.041998 852.600316,535.274342 856.65,542.96 C857.03,543.68 857.42,544.39 857.81,545.09 C862.88,554.15 869.28,562.46 873.97,571.73 C878.015541,580.071942 881.037477,588.872489 882.97,597.94 C883.636667,600.933333 884.27,603.933333 884.87,606.94 C885.8,611.74 886.63,616.58 887.48,621.42 C887.56,621.9 887.65,622.42 887.74,622.86 C888.87,629.28 890.06,635.67 891.59,641.94 C892.48,645.59 893.48,649.19 894.65,652.73 L902.01,643.51 Z" id="Path" fill="#464353"></path>
                <path d="M888.65,564.69 C888.65,565.59 888.59,566.49 888.55,567.4 C888.371509,571.787842 887.967643,576.163613 887.34,580.51 C886.511353,586.442639 885.06001,592.271473 883.01,597.9 C881.651062,601.601143 879.922315,605.155796 877.85,608.51 C876.01199,611.488382 873.859667,614.260922 871.43,616.78 C865.43,623.02 856.79,625.01 848.43,627.64 C844.583544,628.753585 840.866075,630.272082 837.34,632.17 C836.71,632.52 836.09,632.9 835.49,633.3 L825.03,640.23 C821.77,642.38 818.44,644.61 816.2,647.8 C815.833006,648.342724 815.499067,648.907082 815.2,649.49 C813.784497,652.426457 812.749472,655.531532 812.12,658.73 C806.68,681.39 801.23,704.07 797.5,727.07 C797.25,728.59 797.01,730.12 796.75,731.65 L796.66,732.13 C796.614851,732.016217 796.561373,731.905917 796.5,731.8 C769.74,747.98 741.99,762.58 713.4,774.27 L707.19,722.27 C706.54278,718.042832 706.328337,713.76068 706.55,709.49 C707.14,702.76 709.88,696.38 710.62,689.67 C711.320916,683.100978 710.079683,676.470635 707.05,670.6 C705.87,668.32 704.39,666.08 704.12,663.53 C703.85,660.98 705.32,658.65 707.88,658.39 C709.88,656.17 710.04,653.14 709.45,650.14 C709.136561,648.573877 708.667569,647.042954 708.05,645.57 C706.35,641.39 704.2,636.84 705.66,632.57 C706.046171,631.79601 706.218777,630.93298 706.16,630.07 C706.170507,630.017184 706.170507,629.962816 706.16,629.91 C705.82,628.79 704.49,628.3 703.8,627.35 C702.5,625.58 703.8,623.17 704.6,621.13 C705.378013,618.937942 705.829508,616.643406 705.94,614.32 C706.05,613.03 706.13,611.73 706.27,610.45 C706.464785,608.717809 706.775482,607.000625 707.2,605.31 C709.629188,595.730549 715.471455,587.367183 723.63,581.79 C727.52,579.17 731.85,577.26 735.82,574.79 C739.886789,572.048455 743.768529,569.041944 747.44,565.79 C756.246667,558.456667 765.403333,551.543333 774.91,545.05 C785.13223,538.068817 795.720701,531.639625 806.63,525.79 C808.963333,524.53 811.296667,523.303333 813.63,522.11 C816.17,520.776667 818.726667,519.513333 821.3,518.32 C829.54,514.39 838.89,515.86 848,518.48 C851.82,519.57 855.59,520.87 859.23,522.05 C862.784728,523.205632 866.204491,524.741173 869.43,526.63 C877.5,531.37 884.17,538.37 886.94,547.21 C886.944426,547.26658 886.944426,547.32342 886.94,547.38 C888.7,552.92 888.81,558.86 888.65,564.69 Z" id="Path" fill="#B6C5B8"></path>
                <path d="M888.65,564.69 C888.65,565.59 888.59,566.49 888.55,567.4 C888.371509,571.787842 887.967643,576.163613 887.34,580.51 C886.511353,586.442639 885.06001,592.271473 883.01,597.9 C881.651062,601.601143 879.922315,605.155796 877.85,608.51 C876.01199,611.488382 873.859667,614.260922 871.43,616.78 C865.43,623.02 856.79,625.01 848.43,627.64 C844.583544,628.753585 840.866075,630.272082 837.34,632.17 C836.71,632.52 836.09,632.9 835.49,633.3 L825.03,640.23 C821.77,642.38 818.44,644.61 816.2,647.8 C815.833006,648.342724 815.499067,648.907082 815.2,649.49 C813.784497,652.426457 812.749472,655.531532 812.12,658.73 C806.68,681.39 801.23,704.07 797.5,727.07 C797.25,728.59 797.01,730.12 796.75,731.65 L796.66,732.13 C796.614851,732.016217 796.561373,731.905917 796.5,731.8 C769.74,747.98 741.99,762.58 713.4,774.27 L707.19,722.27 C706.54278,718.042832 706.328337,713.76068 706.55,709.49 C707.14,702.76 709.88,696.38 710.62,689.67 C711.320916,683.100978 710.079683,676.470635 707.05,670.6 C705.87,668.32 704.39,666.08 704.12,663.53 C703.85,660.98 705.32,658.65 707.88,658.39 C709.88,656.17 710.04,653.14 709.45,650.14 C709.136561,648.573877 708.667569,647.042954 708.05,645.57 C706.35,641.39 704.2,636.84 705.66,632.57 C706.046171,631.79601 706.218777,630.93298 706.16,630.07 C706.170507,630.017184 706.170507,629.962816 706.16,629.91 C705.82,628.79 704.49,628.3 703.8,627.35 C702.5,625.58 703.8,623.17 704.6,621.13 C705.378013,618.937942 705.829508,616.643406 705.94,614.32 C706.05,613.03 706.13,611.73 706.27,610.45 C706.464785,608.717809 706.775482,607.000625 707.2,605.31 C709.629188,595.730549 715.471455,587.367183 723.63,581.79 C727.52,579.17 731.85,577.26 735.82,574.79 C739.886789,572.048455 743.768529,569.041944 747.44,565.79 C756.246667,558.456667 765.403333,551.543333 774.91,545.05 C785.13223,538.068817 795.720701,531.639625 806.63,525.79 C808.963333,524.53 811.296667,523.303333 813.63,522.11 C816.17,520.776667 818.726667,519.513333 821.3,518.32 C829.54,514.39 838.89,515.86 848,518.48 C851.82,519.57 855.59,520.87 859.23,522.05 C862.784728,523.205632 866.204491,524.741173 869.43,526.63 C877.5,531.37 884.17,538.37 886.94,547.21 C886.944426,547.26658 886.944426,547.32342 886.94,547.38 C888.7,552.92 888.81,558.86 888.65,564.69 Z" id="Path" fill="#8BA6A9" opacity="0.1"></path>
                <path d="M793.7,399.05 C793.424409,398.417434 792.824446,397.986665 792.136973,397.927758 C791.449499,397.86885 790.784998,398.191271 790.405809,398.767731 C790.02662,399.34419 789.993682,400.082047 790.32,400.69 L789.32,401.18 L819.14,462.3 L824.53,459.67 L794.71,398.51 L793.7,399.05 Z" id="Path" fill="#3F3D56"></path>
                <circle id="Oval" fill="#FBBEBE" cx="830.98" cy="271.03" r="64"></circle>
                <path d="M915.45,231.41 C915.150569,226.322419 914.394189,221.272077 913.19,216.32 C909.43,200.15 902.56,184.23 890.73,172.62 C890.000959,169.781416 889.129862,166.981225 888.12,164.23 C888.10114,164.161851 888.077755,164.095036 888.05,164.03 C884.521119,154.337893 879.419461,145.293431 872.95,137.26 C869.2,132.6 864.34,128 858.36,127.82 C856.68,127.76 854.9,128.05 853.36,127.28 C852.227462,126.547748 851.273969,125.570331 850.57,124.42 C844.53455,116.793177 834.769687,113.139054 825.21,114.93 L824.59,115.06 C824.24,115.13 823.89,115.21 823.59,115.3 C823.29,115.39 822.75,115.54 822.33,115.67 C822.79,116.43 823.24,117.2 823.68,117.98 C824.866667,120.093333 825.966667,122.253333 826.98,124.46 C827.82,126.3 828.596667,128.17 829.31,130.07 C819.07,131.24 810.73,138.51 803.11,145.43 L785.17,161.71 C785.137536,161.737431 785.107431,161.767536 785.08,161.8 L784.56,162.3 C784.43,162.43 784.3,162.56 784.18,162.7 C784.131602,162.741694 784.087999,162.78865 784.05,162.84 C783.9,163 783.76,163.17 783.62,163.34 C783.370374,163.654945 783.146327,163.989344 782.95,164.34 C782.85197,164.490106 782.76507,164.647193 782.69,164.81 C782.662561,164.85798 782.639148,164.908151 782.62,164.96 C782.554783,165.096385 782.49801,165.23665 782.45,165.38 C782.445664,165.399765 782.445664,165.420235 782.45,165.44 C782.422039,165.521968 782.398669,165.60543 782.38,165.69 C782.17587,166.393715 782.236339,167.147806 782.55,167.81 L794.38,167.94 L795.77,167.94 C795.83,169.52 795.88,171.11 795.94,172.69 C794.062942,174.095039 792.260491,175.597081 790.54,177.19 C788.664022,178.926484 786.9036,180.78378 785.27,182.75 C774.6,195.64 769.03,212.29 768.47,229.05 C768.47,229.57 768.47,230.05 768.47,230.59 C768.47,232.12 768.47,233.65 768.47,235.17 C768.47,236.17 768.56,237.17 768.64,238.17 C768.645058,239.472583 768.989733,240.751328 769.64,241.88 C769.725267,242.006062 769.818806,242.126326 769.92,242.24 C770.52002,242.891216 771.23978,243.42085 772.04,243.8 L772.9,244.22 L772.9,244.22 C773.33,244.43 773.74,244.63 774.14,244.86 C777.91,246.99 780.14,251.1 783.57,253.74 C783.77,253.89 783.97,254.04 784.17,254.17 L784.62,254.47 L784.9,254.65 L785.28,254.87 C785.529154,255.020332 785.786189,255.157195 786.05,255.28 L786.05,255.28 L786.53,255.52 L786.61,255.52 L786.61,255.52 C787.01,255.7 787.41,255.87 787.82,256.02 L788.39,256.22 L788.56,256.28 C788.72,256.33 788.89,256.39 789.06,256.43 C789.4,256.53 789.733333,256.62 790.06,256.7 L791.06,256.92 C791.45,256.99 791.85,257.06 792.25,257.11 L792.84,257.19 L793.44,257.25 C794.393333,257.336667 795.353333,257.386667 796.32,257.4 L796.32,257.4 C799.353586,257.381287 802.382958,257.170868 805.39,256.77 L830.91,253.77 C836.7,253.1 842.61,252.43 848.32,253.61 C853.16,254.61 857.62,256.91 862.32,258.54 C863.38,258.91 864.44,259.25 865.51,259.54 C865.9,259.65 866.3,259.77 866.7,259.87 L867.25,260.01 L868.53,260.32 C868.99,260.43 869.45,260.54 869.91,260.63 C870.56,260.77 871.2,260.89 871.85,261.01 C872.29,261.1 872.74,261.17 873.19,261.25 L873.28,261.25 L874.56,261.45 L874.87,261.45 L874.87,261.45 L875.82,261.58 C876.28,261.65 876.74,261.71 877.21,261.76 C878.23,261.886667 879.25,261.996667 880.27,262.09 C881.92,262.25 883.58,262.37 885.27,262.47 L886.93,262.57 L888.59,262.65 L893.59,262.87 L893.81,262.87 L894.51,262.87 C896.588648,263.014898 898.677196,262.907449 900.73,262.55 C901.09,262.48 901.44,262.4 901.79,262.3 C902.14,262.2 902.43,262.1 902.79,261.98 C906.54,260.54 909.28,257.23 911.18,253.69 C911.58,252.94 911.95,252.19 912.29,251.42 C912.63,250.65 912.94,249.87 913.22,249.09 C913.57,248.09 913.87,247.14 914.13,246.14 C914.21,245.87 914.28,245.6 914.34,245.32 C914.4,245.04 914.54,244.49 914.62,244.07 C914.87,242.92 915.06,241.76 915.2,240.59 C915.2,240.22 915.29,239.84 915.33,239.47 C915.42,238.47 915.49,237.54 915.53,236.56 C915.53,235.82 915.53,235.07 915.53,234.32 C915.52,233.51 915.45,232.44 915.45,231.41 Z M889.81,171.71 C889,170.95 888.17,170.22 887.33,169.53 C888.264652,170.119854 889.098588,170.855879 889.8,171.71 L889.81,171.71 Z" id="Shape" fill="#464353"></path>
                <path d="M708.15,267.51 C700.62,266.58 693.15,263.28 685.72,264.9 C681.07,265.9 677.07,268.79 673.35,271.76 C659.506367,282.855671 647.734957,296.313064 638.58,311.51 C637.02763,313.782138 635.93696,316.337228 635.37,319.03 C634.89,322.15 635.74,325.32 636.75,328.31 C643.59,348.52 658.22,365.4 664.88,385.67 C671.88,406.99 669.45,430.29 664.29,452.13 C657.893619,479.09193 647.498507,504.944883 633.45,528.83 C631.542586,532.381719 629.153301,535.652684 626.35,538.55 C622.71,542.05 617.82,544.55 615.66,549.13 C614.66,551.13 614.37,553.41 613.66,555.55 C611.66,561.55 606.82,566.69 606.35,573.02 C606,577.85 608.29,582.42 609.68,587.02 C612.024076,594.922891 611.775254,603.368811 608.97,611.12 C603.9,625.02 590.64,637.66 594.49,651.95 C603.08,649.48 612.6,646.27 616.65,638.3 C618.08,635.48 618.79,632.12 621.2,630.06 C626.01,625.97 634.2,629.67 639.31,625.91 C643.17,623.05 643.31,617.19 641.59,612.69 C639.87,608.19 636.91,604.23 635.59,599.6 C633.29,591.25 636.97,582.42 636.29,573.79 C635.97,569.79 634.74,565.96 634.65,561.98 C634.48,554.25 638.76,546.98 644.45,541.73 C650.14,536.48 657.17,533 664.09,529.57 L690.25,516.57 C699.74,511.87 710.14,506.14 713.25,496.02 C714.43,492.23 714.44,488.19 714.5,484.23 C715.39,423.72 730.55,364.43 745.62,305.82 C747.96,296.74 750.34,287.62 753.82,278.9 C757.3,270.18 764.11,263.18 767.58,255.08 C747.45,252.72 729.06,270.13 708.15,267.51 Z" id="Path" fill="#464353"></path>
                <path d="M852.36,647.12 C854.67,661.12 856.08,675.42 857.18,689.65 C839.18,704.57 819.8,717.55 800.11,729.59 C798.99,730.28 797.86,730.96 796.73,731.59 L796.64,732.07 C796.594851,731.956217 796.541373,731.845917 796.48,731.74 C794.952287,728.439237 792.280918,725.803391 788.96,724.32 C781.58,708.82 774.206667,693.32 766.84,677.82 C762.84,669.45 758.84,661 756.84,651.97 C756.84,651.78 756.75,651.58 756.72,651.39 C755.2,644.39 754.85,637.12 753.84,630.03 C753.328267,625.969305 752.413762,621.969603 751.11,618.09 C749.91,614.64 748.26,611.29 746.8,607.92 C745,603.76 743.49,599.55 743.42,595.06 C743.42,593.63 743.51,592.06 742.81,590.86 C742.061651,589.826894 741.137603,588.93331 740.08,588.22 C737.39656,585.840457 736.127,582.24715 736.72,578.71 C730.72,579.02 727.34,585.47 724.93,590.94 C722.738987,596.289938 719.861524,601.332221 716.37,605.94 C713.824962,609.23157 710.588927,611.924852 706.89,613.83 C706.56,613.99 706.23,614.15 705.89,614.29 C697.54,617.97 687.79,616.67 678.74,615.01 C670.83,613.56 662.65,611.76 656.29,606.84 L655.61,606.3 C653.7273,604.735333 652.047607,602.941421 650.61,600.96 C645.28,593.68 642.92,584.09 641.61,574.96 C641.49,574.1 641.37,573.24 641.26,572.38 C640.350821,565.928833 640.09953,559.401975 640.51,552.9 C640.63,551.3 640.8,549.7 641.01,548.11 C641.15,547.11 641.3,546.03 641.47,544.99 C641.465147,544.960196 641.465147,544.929804 641.47,544.9 C641.73,543.25 642.01,541.59 642.29,539.9 C643.29,534.23 644.29,528.41 647.29,523.53 C649.264179,520.493559 651.755186,517.826558 654.65,515.65 C655.73,514.8 656.84,513.99 657.96,513.21 C659.78,511.95 661.65,510.75 663.55,509.62 C668.330192,506.75877 673.348893,504.316335 678.55,502.32 C679.79,501.84 681.05,501.39 682.31,500.96 C687.20785,499.217849 692.478997,498.800435 697.59,499.75 C702.118929,500.405443 706.695543,500.673082 711.27,500.55 C723,500.32 734.78,498.08 746.49,496.63 C762.75,494.63 780.22,494.39 794.4,502.63 C795.08,503.02 795.74,503.43 796.4,503.86 C803.4,508.44 809.04,514.86 813.59,522.03 C814.59,523.54 815.46,525.09 816.32,526.66 C818.302343,530.263823 820.094793,533.968887 821.69,537.76 C822.634029,539.621581 823.143478,541.673054 823.18,543.76 C823.156852,544.15684 823.103362,544.551325 823.02,544.94 C822.75,546.36 822.21,547.74 822.02,549.18 C821.39,554.63 826.02,559.18 827.75,564.37 C828.87,567.75 828.75,571.37 829.38,574.93 C830.29,579.93 832.74,584.43 834.94,588.93 C838.416505,596.173591 841.390202,603.647929 843.84,611.3 C845.58,616.63 847.07,622.04 848.38,627.5 C848.806667,629.253333 849.21,631.01 849.59,632.77 C850.68,637.61 851.57,642.35 852.36,647.12 Z" id="Path" fill="#DEE9E0"></path>
                <polygon id="Path" fill="#3F3D56" points="958.98 499.03 958.98 506.03 957.69 506.01 956.25 505.99 940.17 505.79 900.55 505.27 889.43 505.13 886.55 505.09 869.86 504.88 846.34 504.57 796.44 503.92 709.85 502.8 678.6 502.4 666.06 502.24 654.52 502.09 647.33 501.99 640.52 501.9 590.03 501.25 576.03 501.07 572.98 501.03 571 495.92 556.61 458.81 553.98 452.03 555.98 444.03 564.98 450.03 570.52 450.72 661.73 462.06 678.85 464.19 715.15 468.71 750.71 473.13 764.65 474.86 847.14 485.12 870.19 487.99 889.27 490.36 957.11 498.8"></polygon>
                <polygon id="Path" fill="#504F60" points="555.98 444.03 573.98 491.03 958.98 499.03 958.98 448.03"></polygon>
                <polygon id="Path" fill="#3F3D56" points="575.98 496.03 578.98 783.03 592.98 781.03 589.98 496.03"></polygon>
                <path d="M957.69,506 L956.25,506 C953.918632,523.893187 950.061243,541.554208 944.72,558.79 L940.17,505.79 L939.98,503.53 L956.8,501.59 L957.36,501.53 L957.69,506 Z" id="Path" fill="#3F3D56"></path>
                <polygon id="Path" fill="#FFFFFF" points="902.98 472.03 756.48 475.03 710.98 460.03 832.98 453.03"></polygon>
                <path d="M719.21,413.71 C717.656785,414.305848 716.280403,415.28652 715.21,416.56 C714.372979,417.939613 713.863265,419.492701 713.72,421.1 L711.26,435.77 C710.884791,437.111888 710.951409,438.538904 711.45,439.84 C712.09,441.07 713.95,441.71 714.88,440.69 C714.76,443.56 715.01,446.62 716.68,448.96 C718.35,451.3 721.85,452.53 724.21,450.9 C724.958983,452.120517 726.20625,452.950464 727.621335,453.169947 C729.036419,453.389429 730.476491,452.976293 731.56,452.04 C730.14,452.52 730.04,454.69 731.05,455.79 C732.180905,456.788279 733.622553,457.364231 735.13,457.42 C752.702877,459.896988 770.618414,457.642875 787.03,450.89 C788.58,450.25 784.5,431.14 784.09,429.18 C783.09,424.57 782.59,418.94 778.7,415.84 C769.4,408.42 752.88,406.96 741.55,407.84 C733.808951,408.425558 726.239021,410.414613 719.21,413.71 L719.21,413.71 Z" id="Path" fill="#FBBEBE"></path>
                <path d="M868.27,415.93 C832.1,416.62 795.18,417.21 760.66,406.38 C763.957452,419.158144 763.729364,432.591169 760,445.25 L929.12,459.25 C936.29,459.84 966.02,463.2 973.01,461.51 C980,459.82 914.36,438.2 917.01,431.51 C924.3,413.08 948.72,402.28 931.13,401.59 C908.93,400.71 890.64,415.51 868.27,415.93 Z" id="Path" fill="#000000" opacity="0.1"></path>
                <path d="M869.27,417.93 C833.1,418.62 796.18,419.21 761.66,408.38 C764.957452,421.158144 764.729364,434.591169 761,447.25 L930.12,461.25 C937.29,461.84 967.02,465.25 974.01,463.51 C981,461.77 979.36,453.2 982.01,446.51 C989.3,428.08 949.72,404.28 932.13,403.59 C909.93,402.71 891.64,417.51 869.27,417.93 Z" id="Path" fill="#464353"></path>
                <path d="M811.76,420.71 C813.313843,421.304679 814.690498,422.285545 815.76,423.56 C816.595734,424.940961 817.108512,426.492967 817.26,428.1 L819.72,442.77 C820.090266,444.112444 820.023722,445.537889 819.53,446.84 C818.89,448.07 817.02,448.71 816.1,447.69 C816.21,450.56 815.97,453.62 814.3,455.96 C812.63,458.3 809.13,459.53 806.76,457.9 C806.011017,459.120517 804.76375,459.950464 803.348665,460.169947 C801.933581,460.389429 800.493509,459.976293 799.41,459.04 C800.83,459.52 800.94,461.69 799.93,462.79 C798.795154,463.788281 797.350401,464.364063 795.84,464.42 C778.270405,466.897126 760.35805,464.642979 743.95,457.89 C742.4,457.25 746.47,438.14 746.89,436.18 C747.89,431.57 748.39,425.94 752.28,422.84 C761.57,415.42 778.1,413.96 789.43,414.84 C797.167644,415.426755 804.73408,417.415782 811.76,420.71 Z" id="Path" fill="#FBBEBE"></path>
                <path d="M572.76,388.86 C569.44,393.14 566.11,397.51 563.97,402.5 C559.88,412.02 560.48,422.8 561.16,433.14 C561.35,436.14 561.59,439.2 563.16,441.69 C564.517319,443.571073 566.307832,445.097469 568.38,446.14 C577.04,451.06 587.18,452.53 597.08,453.63 C612.24,455.31 627.453333,456.333333 642.72,456.7 C680.54,457.62 718.94,454.53 755.78,463.1 C751.22,456.17 751.23,447 753.78,439.1 C756.33,431.2 761.24,424.32 766.05,417.55 C749.19,412.21 731.11,420.55 713.45,419.72 C695.32,418.87 678.54,408.39 660.39,408.4 C656.49,408.4 652.52,408.89 648.73,407.95 C644.94,407.01 641.27,404.15 640.92,400.26 C645.76,401.35 650.35,397.21 652.35,392.67 C654.35,388.13 654.71,383 656.65,378.43 C661.48,367.06 674.53,361.79 682.65,352.43 C683.93,350.95 685.14,349.2 685.1,347.24 C684.909221,345.579686 684.210784,344.018679 683.1,342.77 C676.35,333.77 666.18,328.77 657.73,321.77 C654.79,319.33 648.86,310.13 645.56,309.28 C639.44,307.71 634.25,316.55 630.27,320.86 C610.176667,342.693333 591.006667,365.36 572.76,388.86 Z" id="Path" fill="#464353"></path>
                <path d="M773.84,386.32 C776.374639,388.199801 778.627441,390.432398 780.53,392.95 C782.446613,395.506416 783.20463,398.748841 782.62,401.89 C781.982212,395.933853 785.386858,390.281241 790.95,388.06 L773.84,386.32 Z" id="Path" fill="#000000" opacity="0.07"></path>
                <g id="Group" opacity="0.1" transform="translate(768.000000, 114.000000)" fill="#000000">
                    <path d="M61.3,10.08 C60.1236683,6.95449624 58.7680849,3.89942532 57.24,0.93 C56.2522045,1.11987012 55.2770284,1.37034343 54.32,1.68 C56.0356411,4.52971849 57.5816604,7.47817435 58.95,10.51 C59.72,10.31 60.5,10.17 61.3,10.08 Z" id="Path"></path>
                    <path d="M119.32,49.51 C119.59,49.73 119.85,49.98 120.11,50.21 C120.091092,50.145123 120.067702,50.081637 120.04,50.02 C119.813333,49.8533333 119.573333,49.6833333 119.32,49.51 Z" id="Path"></path>
                    <path d="M26.36,53.91 C26.88,53.5 27.36,53.07 27.92,52.67 L27.76,47.92 L17.08,47.81 C15.35,49.4 13.51,51.68 14.53,53.81 L26.36,53.91 Z" id="Path"></path>
                    <path d="M143.12,133.87 C141.22,137.41 138.48,140.73 134.73,142.16 C131.84,143.26 128.66,143.16 125.57,143.02 C115.03,142.59 104.31,142.12 94.35,138.63 C89.69,136.99 85.23,134.7 80.35,133.69 C74.64,132.51 68.73,133.18 62.94,133.86 L37.42,136.86 C29.89,137.74 21.5,138.4 15.49,133.78 C12.05,131.14 9.83,127.03 6.06,124.91 C4.47,124.01 2.58,123.43 1.55,121.91 C0.899732856,120.781328 0.555057645,119.502583 0.55,118.2 C0.47,117.15 0.42,116.1 0.38,115.05 C0.271596563,118.100834 0.32834618,121.155298 0.55,124.2 C0.555057645,125.502583 0.899732856,126.781328 1.55,127.91 C2.55,129.42 4.47,130 6.06,130.91 C9.83,133.03 12.06,137.14 15.49,139.78 C21.49,144.4 29.89,143.78 37.42,142.86 L62.94,139.86 C68.73,139.18 74.64,138.51 80.35,139.69 C85.19,140.69 89.65,142.99 94.35,144.63 C104.35,148.12 115.03,148.63 125.57,149.02 C128.66,149.15 131.84,149.26 134.73,148.16 C138.48,146.73 141.22,143.41 143.12,139.87 C146.8,133.02 147.83,125.25 147.44,117.42 C147.225769,123.154083 145.750808,128.770544 143.12,133.87 Z" id="Path"></path>
                </g>
                <path d="M829.01,130.51 L843.01,143.51 C843.01,143.51 831.01,138.51 829.01,130.51 Z" id="Path" fill="#000000" opacity="0.1"></path>
            </g>
        </g>
    </g>
</svg>